<svg width="101" height="101" viewBox="0 0 101 101" fill="none" xmlns="http://www.w3.org/2000/svg">
<path d="M89.4395 66.8703C86.7623 73.2016 82.5748 78.7808 77.2433 83.1199C71.9117 87.459 65.5984 90.4261 58.8552 91.7616C52.112 93.0972 45.1444 92.7605 38.5614 90.7812C31.9784 88.8018 25.9805 85.2399 21.0921 80.407C16.2036 75.5741 12.5735 69.6173 10.5191 63.0573C8.4647 56.4973 8.04852 49.534 9.30696 42.776C10.5654 36.018 13.4602 29.6712 17.7381 24.2905C22.0161 18.9097 27.5471 14.6588 33.8475 11.9094" fill="#A36BFD"/>
<path d="M89.4395 66.8703C86.7623 73.2016 82.5748 78.7808 77.2433 83.1199C71.9117 87.459 65.5984 90.4261 58.8552 91.7616C52.1121 93.0972 45.1444 92.7605 38.5614 90.7812C31.9784 88.8018 25.9805 85.2399 21.0921 80.407C16.2036 75.5741 12.5735 69.6173 10.5191 63.0573C8.4647 56.4973 8.04852 49.534 9.30696 42.776C10.5654 36.018 13.4602 29.6712 17.7381 24.2905C22.0161 18.9097 27.5471 14.6588 33.8474 11.9094" stroke="white" stroke-linecap="round" stroke-linejoin="round"/>
<path d="M92.5833 50.5001C92.5833 44.9736 91.4948 39.5013 89.3799 34.3955C87.265 29.2897 84.1652 24.6505 80.2574 20.7427C76.3496 16.8349 71.7104 13.735 66.6046 11.6202C61.4988 9.50527 56.0265 8.41675 50.5 8.41675V50.5001H92.5833Z" fill="#60CDAC" stroke="white" stroke-linecap="round" stroke-linejoin="round"/>
</svg>
