<svg width="782" height="479" viewBox="0 0 782 479" fill="none" xmlns="http://www.w3.org/2000/svg">
<g clip-path="url(#clip0_1_4109)">
<path fill-rule="evenodd" clip-rule="evenodd" d="M91.0158 388.241C91.0158 388.241 46.6251 399.151 57.5348 441.796C63.2356 464.081 104.989 469.234 163.521 469.234C164.895 469.234 166.251 469.225 167.615 469.215C168.869 469.634 170.132 470.043 171.413 470.425C240.204 490.822 334.12 470.462 419.057 444.856C485.555 424.813 636.117 428.412 683.108 428.412C845.629 428.412 758.24 388.241 758.24 388.241H91.0158Z" fill="url(#paint0_linear_1_4109)"/>
<path opacity="0.5" d="M736.718 417.056H333.553V387.376H707.09L736.718 417.056Z" fill="#000640"/>
<path opacity="0.5" fill-rule="evenodd" clip-rule="evenodd" d="M406.671 450.083C406.671 459.021 341.074 466.276 260.157 466.276C179.24 466.276 113.643 459.031 113.643 450.083C113.643 441.145 179.24 433.89 260.157 433.89C341.083 433.9 406.671 441.145 406.671 450.083Z" fill="#000640"/>
<path d="M81.6846 390.511H770.812C770.812 390.511 794.674 227.809 688.771 127.358C582.869 26.9077 429.233 104.72 429.233 104.72C429.233 104.72 343.655 -43.1751 217.419 12.7609C13.0699 103.306 81.6846 390.511 81.6846 390.511Z" fill="url(#paint1_linear_1_4109)"/>
<path opacity="0.8" d="M199.388 48.4488C199.304 48.4488 199.221 48.4395 199.137 48.4395C186.231 48.4395 175.767 58.9216 175.767 71.85C175.767 84.7783 186.231 95.2605 199.137 95.2605C212.043 95.2605 222.507 84.7783 222.507 71.85H199.388V48.4488Z" fill="url(#paint2_linear_1_4109)"/>
<path d="M138.712 176.253H146.372V245.527H138.712V176.253Z" fill="url(#paint3_linear_1_4109)"/>
<path d="M153.493 199.785H161.153V245.536H153.493V199.785Z" fill="url(#paint4_linear_1_4109)"/>
<path d="M168.284 184.866H175.944V245.88H168.284V184.866Z" fill="url(#paint5_linear_1_4109)"/>
<path d="M183.075 178.932H190.735V245.536H183.075V178.932Z" fill="url(#paint6_linear_1_4109)"/>
<path d="M197.856 201.199H205.516V245.536H197.856V201.199Z" fill="url(#paint7_linear_1_4109)"/>
<path d="M212.647 209.895H220.307V245.536H212.647V209.895Z" fill="url(#paint8_linear_1_4109)"/>
<path d="M227.437 183.369H235.097V245.536H227.437V183.369Z" fill="url(#paint9_linear_1_4109)"/>
<path d="M242.219 194.576H249.879V245.536H242.219V194.576Z" fill="url(#paint10_linear_1_4109)"/>
<path d="M257.009 185.62H264.669V245.536H257.009V185.62Z" fill="url(#paint11_linear_1_4109)"/>
<path d="M271.8 204.714H279.46V245.536H271.8V204.714Z" fill="url(#paint12_linear_1_4109)"/>
<path d="M286.591 196.948H294.251V245.536H286.591V196.948Z" fill="url(#paint13_linear_1_4109)"/>
<path d="M289.506 191.963C289.506 191.972 289.348 191.953 289.042 191.907C288.708 191.851 288.262 191.786 287.705 191.693C287.12 191.581 286.387 191.488 285.523 191.405C285.087 191.358 284.622 191.312 284.121 191.256C283.62 191.237 283.09 191.209 282.524 191.181C280.268 191.079 277.492 191.144 274.316 191.628C271.15 192.093 267.576 192.967 263.834 194.483C260.101 195.999 256.183 198.139 252.534 201.171C248.83 204.147 245.598 208.1 242.414 212.406C239.201 216.675 235.924 221.363 231.365 225.139C229.109 227.027 226.546 228.664 223.696 229.781C220.845 230.878 217.67 231.352 214.55 230.906C211.412 230.525 208.506 229.232 205.924 227.632C203.362 225.976 201.087 223.995 199.082 221.847C195.033 217.559 192.099 212.685 188.998 208.332C185.934 203.961 182.703 199.971 178.924 197.097C177.058 195.637 175.025 194.586 173.01 193.73C170.976 192.911 168.915 192.409 166.938 192.093C162.954 191.498 159.259 191.842 156.149 192.558C153.029 193.283 150.485 194.428 148.517 195.516C146.585 196.688 145.183 197.757 144.301 198.548C143.883 198.929 143.549 199.236 143.299 199.459C143.066 199.664 142.946 199.766 142.936 199.757C142.927 199.748 143.039 199.636 143.252 199.413C143.493 199.171 143.809 198.855 144.218 198.455C145.081 197.627 146.465 196.52 148.396 195.302C150.364 194.167 152.918 192.977 156.074 192.205C159.213 191.451 162.954 191.061 167.012 191.637C169.027 191.944 171.125 192.437 173.205 193.265C175.257 194.121 177.355 195.199 179.259 196.669C183.121 199.571 186.399 203.598 189.49 207.979C192.61 212.35 195.553 217.187 199.546 221.4C201.523 223.521 203.77 225.456 206.268 227.074C208.793 228.636 211.607 229.892 214.634 230.255C217.642 230.683 220.697 230.227 223.463 229.167C226.23 228.088 228.737 226.488 230.956 224.637C235.432 220.935 238.7 216.294 241.931 212.025C243.547 209.886 245.144 207.802 246.833 205.886C247.688 204.938 248.523 203.998 249.442 203.161L250.789 201.896C251.244 201.496 251.717 201.124 252.181 200.734C255.895 197.683 259.869 195.534 263.648 194.037C267.436 192.53 271.048 191.684 274.251 191.247C277.455 190.8 280.249 190.763 282.515 190.902C283.081 190.94 283.62 190.968 284.121 191.005C284.622 191.07 285.087 191.126 285.523 191.181C286.396 191.284 287.12 191.395 287.705 191.526C288.262 191.647 288.708 191.73 289.033 191.805C289.358 191.916 289.506 191.953 289.506 191.963ZM130.272 250.364C130.096 250.364 129.947 230.608 129.947 206.249C129.947 181.881 130.086 162.125 130.272 162.125C130.448 162.125 130.597 181.871 130.597 206.249C130.597 230.608 130.458 250.364 130.272 250.364ZM297.371 250.364C297.371 250.54 261.039 250.689 216.231 250.689C171.404 250.689 135.081 250.55 135.081 250.364C135.081 250.187 171.404 250.038 216.231 250.038C261.039 250.038 297.371 250.187 297.371 250.364ZM149.631 255.814C149.631 255.991 147.087 256.139 143.948 256.139C140.81 256.139 138.266 255.991 138.266 255.814C138.266 255.637 140.81 255.488 143.948 255.488C147.087 255.488 149.631 255.637 149.631 255.814ZM168.488 256.093C168.488 256.27 165.443 256.418 161.692 256.418C157.941 256.418 154.895 256.27 154.895 256.093C154.895 255.916 157.941 255.767 161.692 255.767C165.443 255.767 168.488 255.916 168.488 256.093ZM184.569 256.093C184.569 256.27 181.524 256.418 177.773 256.418C174.022 256.418 170.977 256.27 170.977 256.093C170.977 255.916 174.022 255.767 177.773 255.767C181.533 255.767 184.569 255.916 184.569 256.093ZM200.651 256.093C200.651 256.27 197.605 256.418 193.854 256.418C190.103 256.418 187.058 256.27 187.058 256.093C187.058 255.916 190.094 255.767 193.854 255.767C197.615 255.767 200.651 255.916 200.651 256.093ZM216.741 256.093C216.741 256.27 213.696 256.418 209.945 256.418C206.194 256.418 203.148 256.27 203.148 256.093C203.148 255.916 206.194 255.767 209.945 255.767C213.696 255.767 216.741 255.916 216.741 256.093ZM232.823 256.093C232.823 256.27 229.777 256.418 226.026 256.418C222.275 256.418 219.23 256.27 219.23 256.093C219.23 255.916 222.275 255.767 226.026 255.767C229.777 255.767 232.823 255.916 232.823 256.093ZM248.904 256.093C248.904 256.27 245.858 256.418 242.107 256.418C238.356 256.418 235.311 256.27 235.311 256.093C235.311 255.916 238.356 255.767 242.107 255.767C245.858 255.767 248.904 255.916 248.904 256.093ZM264.985 256.093C264.985 256.27 261.94 256.418 258.189 256.418C254.438 256.418 251.392 256.27 251.392 256.093C251.392 255.916 254.438 255.767 258.189 255.767C261.94 255.767 264.985 255.916 264.985 256.093ZM281.066 256.093C281.066 256.27 278.021 256.418 274.27 256.418C270.519 256.418 267.473 256.27 267.473 256.093C267.473 255.916 270.519 255.767 274.27 255.767C278.03 255.767 281.066 255.916 281.066 256.093ZM297.148 256.093C297.148 256.27 294.102 256.418 290.351 256.418C286.6 256.418 283.555 256.27 283.555 256.093C283.555 255.916 286.6 255.767 290.351 255.767C294.112 255.767 297.148 255.916 297.148 256.093Z" fill="white"/>
<path d="M191.06 209.16C191.041 209.077 191.719 209.179 191.979 210.053C192.09 210.462 192.09 211.039 191.672 211.541C191.264 212.053 190.447 212.164 189.834 211.867C189.212 211.597 188.748 210.918 188.859 210.267C188.952 209.635 189.388 209.244 189.769 209.058C190.595 208.667 191.125 209.104 191.05 209.151C191.022 209.244 190.549 209.067 190.001 209.449C189.741 209.635 189.481 209.96 189.453 210.332C189.416 210.695 189.676 211.086 190.103 211.281C190.53 211.467 190.995 211.411 191.245 211.141C191.505 210.881 191.579 210.462 191.542 210.146C191.459 209.486 191.004 209.253 191.06 209.16ZM265.087 192.437C265.087 192.4 265.236 192.344 265.524 192.391C265.802 192.437 266.201 192.623 266.526 193.032C266.851 193.423 267.093 194.13 266.796 194.837C266.508 195.516 265.784 196.046 264.92 196.046C264.02 196.046 263.36 195.32 263.175 194.66C262.952 193.972 263.165 193.256 263.537 192.884C264.298 192.121 265.013 192.242 264.994 192.298C265.032 192.4 264.391 192.493 263.89 193.172C263.648 193.497 263.555 193.981 263.732 194.474C263.908 194.958 264.363 195.404 264.929 195.404C265.496 195.413 266.044 195.032 266.257 194.595C266.48 194.149 266.369 193.646 266.155 193.302C265.719 192.577 265.069 192.539 265.087 192.437Z" fill="white"/>
<path d="M266.294 160.098C266.118 160.098 265.969 159.679 265.969 159.168C265.969 158.656 266.118 158.237 266.294 158.237C266.471 158.237 266.619 158.656 266.619 159.168C266.61 159.679 266.471 160.098 266.294 160.098ZM266.294 168.152C266.118 168.152 265.969 167.25 265.969 166.134C265.969 165.018 266.118 164.116 266.294 164.116C266.471 164.116 266.619 165.018 266.619 166.134C266.61 167.25 266.471 168.152 266.294 168.152ZM266.294 176.216C266.118 176.216 265.969 175.314 265.969 174.198C265.969 173.082 266.118 172.18 266.294 172.18C266.471 172.18 266.619 173.082 266.619 174.198C266.61 175.314 266.471 176.216 266.294 176.216ZM266.294 184.28C266.118 184.28 265.969 183.378 265.969 182.262C265.969 181.146 266.118 180.244 266.294 180.244C266.471 180.244 266.619 181.146 266.619 182.262C266.61 183.378 266.471 184.28 266.294 184.28ZM266.294 190.168C266.118 190.168 265.969 189.749 265.969 189.238C265.969 188.726 266.118 188.307 266.294 188.307C266.471 188.307 266.619 188.726 266.619 189.238C266.61 189.749 266.471 190.168 266.294 190.168Z" fill="white"/>
<path d="M319.775 380.456C319.775 380.456 310.304 393.319 278.151 392.547C254.716 391.989 231.486 374.215 231.486 374.215C231.486 374.215 271.252 347.819 319.775 380.456Z" fill="#00759F"/>
<path d="M319.273 381.805C319.273 381.805 299.877 383.897 274.001 354.274C255.143 332.677 251.903 297.054 251.903 297.054C251.903 297.054 308.503 311.08 319.273 381.805Z" fill="#005CB4"/>
<path d="M318.401 381.275C318.401 381.275 300.722 373.015 293.889 334.249C288.903 305.993 304.548 273.83 304.548 273.83C304.548 273.83 345.707 315.173 318.401 381.275Z" fill="#741AAC"/>
<path d="M668.057 388.25C668.057 388.25 677.472 401.039 709.421 400.267C732.707 399.709 755.789 382.047 755.789 382.047C755.789 382.047 716.273 355.818 668.057 388.25Z" fill="#00759F"/>
<path d="M668.549 389.59C668.549 389.59 687.815 391.673 713.534 362.226C732.28 340.769 735.492 305.36 735.492 305.36C735.492 305.36 679.254 319.312 668.549 389.59Z" fill="#005CB4"/>
<path d="M669.422 389.069C669.422 389.069 686.989 380.856 693.776 342.341C698.725 314.261 683.182 282.303 683.182 282.303C683.182 282.303 642.282 323.385 669.422 389.069Z" fill="#741AAC"/>
<path opacity="0.3" d="M145.759 217.922L315.615 144.184L529.537 395.208L140.346 232.134" fill="#83FFFF"/>
<path d="M315.615 144.184H673.247V393.673H315.615V144.184Z" fill="url(#paint14_linear_1_4109)"/>
<path d="M340.888 158.712H659.153V294.627H340.888V158.712Z" fill="url(#paint15_linear_1_4109)"/>
<path d="M340.888 302.142H506.028V381.284H340.888V302.142Z" fill="url(#paint16_linear_1_4109)"/>
<path d="M430.394 231.399H447.051V291.306H430.394V231.399Z" fill="#A600A9"/>
<path d="M449.223 220.052H465.88V291.306H449.223V220.052Z" fill="url(#paint17_linear_1_4109)"/>
<path d="M468.127 181.211H484.784V291.316H468.127V181.211Z" fill="#A600A9"/>
<path d="M328.874 175.323C330.935 175.323 332.606 173.649 332.606 171.584C332.606 169.519 330.935 167.845 328.874 167.845C326.812 167.845 325.141 169.519 325.141 171.584C325.141 173.649 326.812 175.323 328.874 175.323Z" fill="url(#paint18_linear_1_4109)"/>
<path d="M328.874 200.65C330.935 200.65 332.606 198.976 332.606 196.911C332.606 194.846 330.935 193.172 328.874 193.172C326.812 193.172 325.141 194.846 325.141 196.911C325.141 198.976 326.812 200.65 328.874 200.65Z" fill="url(#paint19_linear_1_4109)"/>
<path d="M328.874 228.46C330.935 228.46 332.606 226.786 332.606 224.721C332.606 222.656 330.935 220.982 328.874 220.982C326.812 220.982 325.141 222.656 325.141 224.721C325.141 226.786 326.812 228.46 328.874 228.46Z" fill="url(#paint20_linear_1_4109)"/>
<path d="M630.648 330.817C618.198 334.454 618.244 328.668 603.388 326.138C588.542 323.609 583.937 328.668 576.778 333.905C569.629 339.132 558.571 333.654 551.755 331.328C544.931 329.003 534.718 332.658 526.761 339.244C524.152 341.411 520.503 342.629 516.789 343.308V372.653H658.066V311.313C648.93 316.186 640.574 327.915 630.648 330.817Z" fill="url(#paint21_linear_1_4109)"/>
<path d="M630.648 339.439C618.198 343.076 618.244 337.29 603.388 334.76C588.542 332.231 583.937 337.29 576.778 342.527C569.619 347.763 558.571 342.276 551.755 339.95C544.931 337.625 534.718 341.28 526.761 347.866C524.152 350.033 520.503 351.251 516.789 351.93V381.275H658.066V319.935C648.93 324.818 640.574 336.537 630.648 339.439Z" fill="#00759F"/>
<path d="M356.71 227.632H373.367V291.306H356.71V227.632Z" fill="#A600A9"/>
<path d="M375.038 208.891H391.695V291.306H375.038V208.891Z" fill="url(#paint22_linear_1_4109)"/>
<path d="M393.236 251.517H409.893V291.316H393.236V251.517Z" fill="url(#paint23_linear_1_4109)"/>
<path d="M411.685 263.069H428.342V291.306H411.685V263.069Z" fill="url(#paint24_linear_1_4109)"/>
<path d="M463.225 331.784H468.675V372.987H463.225V331.784Z" fill="url(#paint25_linear_1_4109)"/>
<path d="M454.831 349.121H460.282V372.978H454.831V349.121Z" fill="#005CB4"/>
<path d="M446.438 345.401H451.888V372.987H446.438V345.401Z" fill="#A600A9"/>
<path d="M438.044 361.864H443.495V372.987H438.044V361.864Z" fill="#005CB4"/>
<path d="M480.021 322.781H485.471V372.978H480.021V322.781Z" fill="#00759F"/>
<path d="M471.618 327.375H477.069V372.987H471.618V327.375Z" fill="url(#paint26_linear_1_4109)"/>
<path d="M496.808 317.814H502.258V372.978H496.808V317.814Z" fill="#A600A9"/>
<path d="M488.415 306.923H493.865V372.987H488.415V306.923Z" fill="#005CB4"/>
<path d="M443.346 378.159C443.346 378.289 442.269 378.391 440.932 378.391C439.604 378.391 438.518 378.289 438.518 378.159C438.518 378.029 439.595 377.917 440.932 377.917C442.269 377.917 443.346 378.029 443.346 378.159ZM451.628 378.159C451.628 378.289 450.551 378.391 449.214 378.391C447.886 378.391 446.809 378.289 446.809 378.159C446.809 378.029 447.886 377.917 449.214 377.917C450.551 377.917 451.628 378.029 451.628 378.159ZM459.901 378.159C459.901 378.289 458.824 378.391 457.496 378.391C456.168 378.391 455.091 378.289 455.091 378.159C455.091 378.029 456.168 377.917 457.496 377.917C458.824 377.917 459.901 378.029 459.901 378.159ZM468.174 378.159C468.174 378.289 467.097 378.391 465.769 378.391C464.441 378.391 463.355 378.289 463.355 378.159C463.355 378.029 464.432 377.917 465.769 377.917C467.097 377.917 468.174 378.029 468.174 378.159ZM476.456 378.159C476.456 378.289 475.379 378.391 474.051 378.391C472.723 378.391 471.637 378.289 471.637 378.159C471.637 378.029 472.714 377.917 474.051 377.917C475.379 377.917 476.456 378.029 476.456 378.159ZM484.728 378.159C484.728 378.289 483.651 378.391 482.314 378.391C480.987 378.391 479.9 378.289 479.9 378.159C479.9 378.029 480.977 377.917 482.314 377.917C483.651 377.917 484.728 378.029 484.728 378.159ZM493.011 378.159C493.011 378.289 491.933 378.391 490.596 378.391C489.269 378.391 488.192 378.289 488.192 378.159C488.192 378.029 489.269 377.917 490.596 377.917C491.924 377.917 493.011 378.029 493.011 378.159ZM501.283 378.159C501.283 378.289 500.206 378.391 498.869 378.391C497.541 378.391 496.464 378.289 496.464 378.159C496.464 378.029 497.541 377.917 498.869 377.917C500.206 377.917 501.283 378.029 501.283 378.159Z" fill="#1A2E35"/>
<path opacity="0.5" d="M150.42 415.967C178.428 415.967 201.134 412.624 201.134 408.499C201.134 404.374 178.428 401.03 150.42 401.03C122.412 401.03 99.7064 404.374 99.7064 408.499C99.7064 412.624 122.412 415.967 150.42 415.967Z" fill="#000640"/>
<path d="M155.972 238.505L149.213 268.249C149.027 269.059 149.575 269.858 150.401 269.97L171.441 272.993C172.174 273.095 172.861 272.621 173.028 271.905L179.788 242.169C179.973 241.36 179.426 240.56 178.609 240.439L157.569 237.417C156.826 237.305 156.139 237.779 155.972 238.505Z" fill="black"/>
<path d="M157.291 239.463L150.819 267.933L171.71 270.937L178.182 242.467L157.291 239.463Z" fill="url(#paint27_linear_1_4109)"/>
<path d="M175.962 244.56L158.219 242.011M175.368 247.257L157.616 244.699M167.977 249.489L156.882 247.889M167.188 251.796L156.093 250.205M166.399 254.112L155.304 252.521M170.466 266.891L159.38 265.301" stroke="#A1D2F0" stroke-width="1.481" stroke-linecap="round" stroke-linejoin="round"/>
<path d="M147.876 268.593C149.064 268.035 149.956 266.994 150.801 265.98L153.308 262.994C153.642 262.604 153.985 262.166 154.022 261.655C152.62 261.543 151.72 263.366 150.318 263.469C150.968 261.162 151.905 258.93 153.103 256.846C153.391 256.335 153.707 255.749 153.502 255.2C151.989 255.777 150.708 256.856 149.612 258.046C148.842 258.883 148.127 259.785 147.505 260.734C145.657 263.534 144.506 266.752 143.726 270.026" fill="url(#paint28_linear_1_4109)"/>
<path d="M141.887 310.559L135.351 325.571C138.108 330.231 139.696 335.737 139.91 341.308C140.021 344.21 139.761 347.103 139.845 350.005C139.854 350.209 139.882 350.433 139.928 350.637C140.801 346.34 141.46 342.797 141.711 340.499C142.426 334.044 142.426 323.785 142.203 310.541C142.11 310.541 141.999 310.541 141.887 310.559Z" fill="#F2A181"/>
<path d="M141.85 292.553L126.827 279.857C126.827 279.857 119.836 289.353 122.473 298.515C123.773 303.016 125.397 305.258 126.103 307.397C126.762 309.397 131.284 337.662 130.95 339.737C130.615 341.801 128.183 347.587 127.254 353.669C126.233 360.357 126.307 380.847 125.667 389.134H125.657C125.657 389.134 125.147 395.319 124.413 396.668C123.689 398.016 122.658 399.523 122.482 401.356C122.38 402.416 122.965 403.541 124.181 404.164C125.397 404.788 126.214 404.137 126.651 404.192C129.195 404.499 129.65 406.434 134.014 407.159C135.36 407.383 137.421 406.927 138.6 405.997C139.065 405.634 139.046 405.048 138.786 404.639C138.526 404.239 135.304 403.132 133.856 402.193C132.472 401.3 131.117 398.844 130.736 398.007C130.643 397.793 130.662 397.179 130.745 396.407C130.94 395.087 131.163 393.71 131.405 392.287C131.6 391.273 131.757 390.538 131.757 390.538L131.711 390.529C134.896 372.523 140.819 348.731 141.729 340.527C142.732 331.366 142.324 314.633 141.85 292.553Z" fill="url(#paint29_linear_1_4109)"/>
<path d="M138.935 406.294C139.25 405.746 139.334 404.927 139.037 404.722C138.628 404.443 137.161 403.476 136.316 403.085C135.471 402.695 134.125 402.351 134.599 402.611C135.072 402.872 134.199 403.83 133.41 403.774C130.671 403.606 128.656 401.783 127.096 401.393C124.85 400.825 123.903 398.165 123.8 397.737C123.373 398.007 122.389 400.156 122.185 400.825C122.008 401.439 121.674 402.546 121.851 403.179C121.971 403.616 122.231 404.499 122.101 405.429C122.101 405.429 122.547 405.773 123.717 406.015C124.46 406.173 125.462 406.043 125.462 406.043L125.657 404.629C125.657 404.629 126.27 404.611 127.05 404.769C127.83 404.927 129.102 405.671 129.176 405.764C129.492 406.136 129.743 406.824 130.151 407.029C131.247 407.578 132.352 407.848 133.744 407.931C136.678 408.08 138.387 407.224 138.935 406.294Z" fill="black"/>
<path d="M162.36 406.015C162.035 405.662 158.553 405.094 156.929 404.406C155.378 403.755 153.493 401.662 153.122 400.77C152.75 399.886 152.843 395.384 152.89 393.496C153.215 380.484 155.619 348.684 155.963 341.076C156.567 327.841 154.849 314.177 149.77 292.934L130.838 278.378C130.838 278.378 125.537 288.246 127.31 297.687C128.341 303.165 132.872 304.002 133.642 306.132C134.413 308.262 145.861 342.573 145.861 342.573C145.861 342.573 143.633 349.996 143.503 358.125C143.391 365.063 146.53 385.99 147.115 393.961C147.18 395.514 147.449 399.253 146.994 400.435C146.437 401.886 144.998 403.597 145.072 405.429C145.109 406.499 145.88 407.503 147.226 407.922C148.563 408.341 149.315 407.559 149.779 407.541C152.444 407.429 153.187 409.271 157.792 409.261C159.213 409.261 161.274 408.48 162.37 407.355C162.778 406.955 162.685 406.378 162.36 406.015Z" fill="url(#paint30_linear_1_4109)"/>
<path d="M162.759 407.652C163.01 407.057 162.973 406.229 162.648 406.08C162.184 405.876 160.54 405.15 159.612 404.909C158.683 404.657 157.254 404.536 157.774 404.713C158.293 404.89 157.532 405.978 156.706 406.062C153.855 406.341 151.516 404.871 149.854 404.741C147.449 404.555 146.567 402.081 146.409 401.662C146.01 401.997 144.821 404.276 144.71 404.983C144.608 405.615 144.431 406.769 144.701 407.364C144.886 407.773 145.285 408.61 145.276 409.54C145.276 409.54 145.787 409.801 147.031 409.857C147.82 409.885 148.832 409.596 148.832 409.596V408.164C148.832 408.164 149.464 408.043 150.29 408.071C151.116 408.099 152.138 408.527 152.639 408.899C153.029 409.196 153.437 409.689 153.902 409.81C155.239 410.145 156.195 410.238 157.644 410.089C160.68 409.782 162.323 408.657 162.759 407.652Z" fill="black"/>
<path d="M127.226 278.257C125.945 279.671 121.368 287.316 121.312 293.529C121.266 299.752 123.475 303.742 123.67 305.035C125.119 314.54 126.53 325.999 126.53 326.622C126.53 327.245 131.915 330.845 139.157 330.389C152.537 329.543 157.736 326.036 157.736 326.036C157.736 326.036 157.105 303.016 155.044 291.669C154.013 285.986 149.51 276.825 149.51 276.825" fill="url(#paint31_linear_1_4109)"/>
<path d="M115.017 253.405C115.017 253.405 117.171 264.129 117.737 266.036C118.304 267.942 121.099 280.062 123.745 279.848C126.391 279.634 140.903 267.505 140.903 267.505L138.851 263.385L126.075 269.486C126.075 269.486 124.924 255.637 123.912 252.335" fill="white"/>
<path d="M119.956 260.009C121.312 264.799 124.079 269.84 124.905 273.56C125.072 274.304 133.921 271.086 133.939 267.756" fill="url(#paint32_linear_1_4109)"/>
<path d="M118.824 247.164C118.824 247.164 118.36 256.121 119.975 260.641C121.572 260.613 122.974 260.241 122.974 260.241L118.824 247.164Z" fill="#B03D44"/>
<path d="M143.911 210.425C146.465 213.736 145.963 218.405 145.332 222.544C145.016 224.637 144.691 226.73 144.376 228.822C144.227 229.818 144.023 230.906 143.252 231.548C142.472 232.189 141.358 232.18 140.346 232.143L140.374 237.342C137.412 237.407 134.459 237.426 131.498 237.379C131.498 236.161 131.228 234.952 130.736 233.854C129.288 233.826 128.322 232.375 127.756 231.036C127.106 229.501 126.623 227.892 126.168 226.283C125.555 224.153 124.97 221.986 124.915 219.763C124.859 217.54 125.388 215.234 126.79 213.522C127.746 212.35 129.056 211.523 130.393 210.825C132.231 209.867 134.432 209.114 136.326 209.951" fill="white"/>
<path d="M141.339 218.024C141.571 218.387 141.516 218.88 141.739 219.252C142.11 219.884 142.593 220.107 143.252 220.414C144.311 220.907 144.069 222.461 144.032 223.149C144.83 222.619 144.96 221.158 145.155 220.424C145.369 219.596 145.508 218.74 145.759 217.922C145.991 217.122 146.4 216.368 146.474 215.522C146.734 212.611 144.914 209.188 142.704 207.56C141.098 206.37 138.656 206.416 136.846 207.626C136.084 208.137 135.509 208.9 135.174 209.755C135.026 210.118 134.933 210.546 135.109 210.899" fill="black"/>
<path d="M127.096 238.579C127.245 237.565 127.524 236.384 128.461 235.984C128.721 235.873 129.009 235.835 129.297 235.808C132.185 235.491 135.091 235.352 137.988 235.398C139.185 235.417 140.429 235.482 141.507 236.012C143.187 236.859 144.116 238.672 144.933 240.374" fill="url(#paint33_linear_1_4109)"/>
<path d="M150.541 258.028C150.541 258.976 150.011 260.25 149.844 260.743C149.185 261.088 146.567 261.646 145.063 260.957C144.728 257.823 142.899 251.796 142.899 251.796C142.899 251.796 150.541 257.153 150.541 258.028Z" fill="#B03D44"/>
<path d="M147.18 255.842C147.18 255.842 155.852 276.825 159.612 276.825C162.351 276.825 169.055 257.451 169.055 257.451L164.811 255.442L160.085 263.552L155.304 248.42" fill="white"/>
<path d="M163.976 256.884C163.976 256.884 165.378 254.67 165.276 253.098C165.238 252.503 164.876 249.647 165.174 249.089C165.471 248.531 166.186 246.69 166.594 246.336C167.003 245.983 168.507 245.406 168.878 245.657C169.25 245.908 169.704 244.736 170.317 244.839C170.93 244.941 171.431 245.453 171.431 246.011C171.431 246.569 172.249 246.671 172.351 247.08C172.453 247.49 172.406 247.843 172.555 248.15C172.703 248.457 173.158 248.308 173.316 249.071C173.465 249.768 173.27 249.833 173.316 250.196C173.363 250.55 173.669 250.522 173.567 251.201C173.465 251.88 173.001 252.763 172.592 253.526C172.184 254.289 171.348 255.247 170.224 255.926C169.677 256.26 169.37 256.846 168.841 257.832" fill="white"/>
<path d="M166.306 240.672C166.195 240.505 165.907 240.225 165.554 240.467C165.211 240.709 165.313 241.128 165.387 241.304L167.95 247.118C167.95 247.118 168.154 247.359 168.553 247.006C168.98 246.625 168.85 246.439 168.85 246.439C168.85 246.439 166.408 240.839 166.306 240.672Z" fill="black"/>
<path d="M168.999 246.057C168.507 246.931 167.94 247.21 167.439 247.685C167.04 248.057 167.086 248.299 166.65 248.689C167.42 248.634 167.29 248.178 168.284 247.452C168.748 247.117 169.222 246.755 169.315 246.187C169.352 246.001 169.12 245.89 168.999 246.057Z" fill="black"/>
<path d="M150.55 259.665C153.345 259.153 155.508 257.209 157.727 254.94C156.492 251.526 154.737 243.127 151.683 239.919C148.526 236.617 143.206 237.026 140.355 237.119C137.403 236.989 134.97 237.342 131.442 237.5C129.093 237.603 126.753 237.882 124.45 238.384C124.19 238.44 123.93 238.505 123.67 238.57V238.542C123.67 238.542 119.437 238.998 117.282 240.644C111.804 244.839 116.048 260.083 116.048 260.083C116.048 260.083 115.778 260.892 119.455 260.688C120.077 260.65 120.681 260.595 121.256 260.52C123.169 265.013 127.979 274.276 126.577 276.257C126.214 276.769 125.295 277.755 125.184 278.397C124.775 280.75 130.095 281.587 132.37 281.773C135.834 282.061 139.817 281.866 143.289 281.708C145.926 281.587 151.683 280.666 152.091 277.401C152.175 276.76 151.859 276.248 151.543 275.783C151.135 275.188 150.206 274.472 149.872 273.811C149.074 272.23 148.368 265.58 148.647 263.887C148.86 262.529 149.789 261.646 150.55 259.665Z" fill="url(#paint34_linear_1_4109)"/>
<path d="M141.711 330.184C140.857 324.66 135.583 307.546 135.36 307.072C132.482 304.839 130.588 302.533 129.631 300.672C128.981 304.421 130.69 308.132 132.287 311.592C135.081 317.628 136.743 324.185 139.148 330.389" fill="url(#paint35_linear_1_4109)"/>
<path d="M140.857 226.218C140.504 224.479 140.532 223.493 141.098 222.33C141.284 221.949 141.534 221.586 141.878 221.344C142.342 221.019 142.946 220.954 143.456 221.177C143.791 221.326 144.06 221.596 144.255 221.921C144.858 219.587 144.988 217.094 144.812 214.666C144.533 210.816 142.221 207.839 138.833 206.444C132.565 203.868 123.568 206.416 121.024 212.574C119.102 217.224 120.077 223.939 123.754 227.846C127.013 231.297 131.693 231.808 136.019 231.092C138.229 230.729 141.646 230.943 142.788 227.93C142.881 227.697 142.676 227.465 142.444 227.483C141.544 227.558 140.922 226.544 140.857 226.218Z" fill="black"/>
<path d="M128.638 228.934C126.837 228.423 124.887 229.436 123.68 230.887C122.287 232.552 121.693 235.147 122.983 236.877C123.466 237.528 124.163 237.984 124.868 238.384C127.022 239.584 129.566 240.291 131.962 239.705C134.348 239.119 136.446 236.97 136.418 234.505C136.391 232.273 134.766 230.413 133.122 228.906" fill="black"/>
<path opacity="0.5" d="M677.834 411.215C677.834 416.674 655.699 421.102 628.402 421.102C601.104 421.102 578.969 416.674 578.969 411.215C578.969 405.755 601.095 401.328 628.402 401.328C655.708 401.328 677.834 405.755 677.834 411.215Z" fill="#000640"/>
<path d="M612.135 245.964L618.69 274.806C618.866 275.588 618.337 276.36 617.538 276.481L597.13 279.42C596.425 279.522 595.747 279.057 595.589 278.359L589.034 249.517C588.858 248.727 589.387 247.955 590.185 247.843L610.593 244.913C611.308 244.802 611.977 245.267 612.135 245.964Z" fill="black"/>
<path d="M610.863 246.894L617.139 274.518L596.87 277.429L590.594 249.805L610.863 246.894Z" fill="url(#paint36_linear_1_4109)"/>
<path d="M592.739 251.842L609.962 249.368M593.324 254.456L610.538 251.982M600.491 256.623L611.252 255.07M601.253 258.865L612.014 257.311M602.023 261.106L612.784 259.562M598.077 273.504L608.838 271.96" stroke="#A1D2F0" stroke-width="1.436" stroke-linecap="round" stroke-linejoin="round"/>
<path d="M619.99 275.16C618.838 274.611 617.975 273.607 617.158 272.621C616.35 271.654 615.533 270.686 614.725 269.719C614.4 269.338 614.066 268.919 614.029 268.426C615.394 268.314 616.266 270.082 617.622 270.184C616.991 267.942 616.081 265.775 614.92 263.757C614.641 263.264 614.335 262.687 614.53 262.157C615.997 262.715 617.241 263.766 618.309 264.92C619.061 265.729 619.748 266.603 620.352 267.524C622.144 270.24 623.258 273.365 624.019 276.537" fill="black"/>
<path d="M625.793 315.852L632.125 330.417C629.451 334.937 627.909 340.276 627.705 345.68C627.603 348.489 627.844 351.307 627.77 354.116C627.761 354.311 627.733 354.525 627.687 354.73C626.842 350.563 626.201 347.131 625.96 344.889C625.263 338.63 625.263 328.678 625.486 315.833C625.588 315.842 625.69 315.842 625.793 315.852Z" fill="#F2A181"/>
<path d="M625.839 298.394L640.407 286.079C640.407 286.079 647.185 295.287 644.631 304.179C643.378 308.55 641.8 310.717 641.112 312.792C640.472 314.726 636.089 342.155 636.414 344.154C636.739 346.163 639.098 351.772 639.998 357.669C640.992 364.152 640.917 384.028 641.54 392.073H641.549C641.549 392.073 642.05 398.072 642.756 399.374C643.462 400.686 644.455 402.146 644.631 403.913C644.734 404.936 644.158 406.034 642.979 406.638C641.8 407.243 641.01 406.611 640.583 406.666C638.113 406.964 637.677 408.843 633.443 409.54C632.134 409.754 630.138 409.317 628.987 408.406C628.541 408.052 628.559 407.485 628.81 407.094C629.061 406.704 632.18 405.625 633.592 404.722C634.938 403.857 636.247 401.476 636.619 400.658C636.711 400.444 636.693 399.858 636.609 399.105C636.414 397.821 636.201 396.482 635.969 395.115C635.783 394.129 635.634 393.412 635.634 393.412L635.681 393.403C632.598 375.945 626.851 352.86 625.969 344.899C624.975 336.035 625.375 319.814 625.839 298.394Z" fill="black"/>
<path d="M628.661 408.712C628.355 408.182 628.272 407.382 628.559 407.187C628.959 406.917 630.379 405.978 631.196 405.597C632.013 405.215 633.322 404.88 632.858 405.132C632.403 405.383 633.248 406.313 634.01 406.257C636.665 406.099 638.624 404.322 640.138 403.95C642.319 403.402 643.239 400.825 643.332 400.407C643.749 400.667 644.706 402.751 644.901 403.402C645.077 403.997 645.393 405.076 645.226 405.69C645.114 406.118 644.854 406.973 644.984 407.866C644.984 407.866 644.557 408.201 643.415 408.433C642.691 408.582 641.725 408.452 641.725 408.452L641.539 407.076C641.539 407.076 640.945 407.057 640.193 407.206C639.441 407.364 638.206 408.08 638.132 408.173C637.826 408.536 637.584 409.196 637.185 409.401C636.127 409.94 635.049 410.191 633.703 410.275C630.853 410.452 629.191 409.624 628.661 408.712Z" fill="black"/>
<path d="M605.942 408.452C606.257 408.108 609.628 407.559 611.215 406.89C612.72 406.257 614.549 404.229 614.901 403.364C615.254 402.499 615.171 398.137 615.134 396.305C614.818 383.684 612.487 352.842 612.153 345.457C611.568 332.621 613.23 319.367 618.16 298.756L636.526 284.638C636.526 284.638 641.67 294.218 639.943 303.37C638.94 308.681 634.548 309.499 633.805 311.564C633.063 313.629 621.958 346.908 621.958 346.908C621.958 346.908 624.121 354.107 624.242 361.984C624.353 368.718 621.299 389.013 620.732 396.742C620.667 398.258 620.407 401.876 620.853 403.02C621.401 404.434 622.784 406.09 622.719 407.866C622.682 408.899 621.939 409.884 620.63 410.284C619.33 410.694 618.606 409.931 618.16 409.912C615.57 409.801 614.855 411.587 610.389 411.587C609.015 411.587 607.009 410.824 605.951 409.736C605.533 409.354 605.626 408.796 605.942 408.452Z" fill="black"/>
<path d="M605.561 410.033C605.32 409.457 605.347 408.657 605.672 408.508C606.118 408.303 607.715 407.606 608.616 407.364C609.516 407.122 610.909 407.01 610.398 407.178C609.888 407.355 610.63 408.406 611.429 408.48C614.196 408.75 616.461 407.327 618.077 407.196C620.407 407.01 621.262 404.611 621.419 404.211C621.809 404.536 622.961 406.75 623.063 407.429C623.165 408.043 623.332 409.159 623.072 409.745C622.896 410.145 622.506 410.954 622.515 411.856C622.515 411.856 622.023 412.117 620.816 412.163C620.055 412.191 619.07 411.912 619.07 411.912V410.526C619.07 410.526 618.458 410.405 617.659 410.442C616.851 410.47 615.867 410.88 615.384 411.252C615.004 411.54 614.604 412.024 614.159 412.135C612.868 412.461 611.94 412.554 610.528 412.414C607.576 412.098 605.979 411.01 605.561 410.033Z" fill="black"/>
<path d="M640.026 284.526C641.27 285.893 645.708 293.306 645.755 299.342C645.801 305.379 643.656 309.248 643.471 310.504C642.059 319.721 647.946 366.123 647.946 366.728C647.946 367.333 640.453 373.406 633.462 374.206C618.105 375.964 603.62 369.369 603.62 369.369C603.62 369.369 606.257 333.765 613.044 297.538C614.075 292.032 618.411 283.14 618.411 283.14" fill="url(#paint37_linear_1_4109)"/>
<path d="M651.864 260.418C651.864 260.418 649.775 270.816 649.227 272.667C648.68 274.518 645.968 286.275 643.396 286.07C640.825 285.865 626.749 274.09 626.749 274.09L628.745 270.1L641.14 276.016C641.14 276.016 642.264 262.576 643.239 259.376" fill="black"/>
<path d="M648.169 254.372C648.169 254.372 648.624 263.059 647.045 267.449C645.495 267.422 644.139 267.068 644.139 267.068L648.169 254.372Z" fill="#B03D44"/>
<path d="M623.833 218.731C621.354 221.949 621.846 226.469 622.459 230.487C622.766 232.515 623.072 234.552 623.388 236.58C623.536 237.547 623.731 238.598 624.483 239.221C625.235 239.844 626.322 239.835 627.297 239.798L627.269 244.839C630.138 244.904 633.007 244.923 635.876 244.876C635.876 243.695 636.136 242.523 636.619 241.453C638.021 241.425 638.958 240.021 639.506 238.719C640.138 237.231 640.602 235.668 641.047 234.105C641.642 232.041 642.208 229.929 642.264 227.781C642.319 225.632 641.809 223.391 640.444 221.726C639.515 220.591 638.243 219.791 636.944 219.112C635.161 218.182 633.025 217.447 631.187 218.257" fill="white"/>
<path d="M626.331 226.107C626.108 226.46 626.155 226.934 625.95 227.297C625.598 227.911 625.124 228.125 624.483 228.423C623.453 228.906 623.694 230.404 623.722 231.083C622.942 230.562 622.821 229.157 622.636 228.432C622.422 227.632 622.292 226.804 622.051 226.004C621.828 225.223 621.429 224.498 621.354 223.679C621.104 220.852 622.868 217.54 625.003 215.95C626.554 214.797 628.931 214.843 630.686 216.015C631.428 216.508 631.986 217.252 632.31 218.08C632.45 218.433 632.552 218.852 632.375 219.187" fill="black"/>
<path d="M640.147 246.039C639.998 245.053 639.738 243.909 638.819 243.518C638.568 243.406 638.29 243.378 638.011 243.351C635.207 243.044 632.394 242.904 629.581 242.951C628.42 242.969 627.213 243.025 626.173 243.546C624.539 244.364 623.638 246.132 622.849 247.778" fill="url(#paint38_linear_1_4109)"/>
<path d="M617.408 264.901C617.408 265.822 617.919 267.049 618.086 267.542C618.727 267.868 621.271 268.417 622.729 267.756C623.044 264.715 624.827 258.865 624.827 258.865C624.827 258.865 617.408 264.055 617.408 264.901Z" fill="#B03D44"/>
<path d="M620.667 262.78C620.667 262.78 612.255 283.131 608.616 283.131C605.96 283.131 599.452 264.343 599.452 264.343L603.565 262.39L608.151 270.258L612.794 255.581" fill="black"/>
<path d="M604.372 263.803C604.372 263.803 603.008 261.655 603.11 260.13C603.147 259.544 603.49 256.781 603.203 256.242C602.915 255.702 602.228 253.917 601.828 253.572C601.429 253.228 599.971 252.67 599.619 252.921C599.266 253.172 598.82 252.028 598.226 252.131C597.632 252.233 597.14 252.726 597.14 253.265C597.14 253.805 596.35 253.907 596.248 254.307C596.146 254.707 596.193 255.051 596.053 255.349C595.905 255.647 595.468 255.498 595.31 256.242C595.171 256.921 595.357 256.986 595.31 257.33C595.264 257.674 594.967 257.646 595.06 258.307C595.162 258.967 595.608 259.823 596.007 260.567C596.406 261.311 597.214 262.232 598.3 262.892C598.839 263.218 599.127 263.785 599.637 264.743" fill="black"/>
<path d="M602.116 248.076C602.218 247.917 602.506 247.648 602.84 247.88C603.175 248.113 603.073 248.522 602.998 248.689L600.51 254.326C600.51 254.326 600.306 254.558 599.925 254.214C599.507 253.851 599.637 253.665 599.637 253.665C599.637 253.665 602.014 248.234 602.116 248.076Z" fill="white"/>
<path d="M599.498 253.293C599.971 254.14 600.519 254.409 601.011 254.875C601.401 255.237 601.346 255.47 601.773 255.851C601.021 255.795 601.151 255.349 600.185 254.651C599.739 254.326 599.275 253.972 599.182 253.424C599.154 253.238 599.387 253.135 599.498 253.293Z" fill="black"/>
<path d="M617.39 266.491C614.679 265.989 612.58 264.11 610.426 261.906C611.624 258.604 613.323 250.447 616.285 247.341C619.34 244.141 624.502 244.532 627.269 244.625C630.129 244.495 632.487 244.839 635.913 244.997C638.188 245.099 640.462 245.36 642.7 245.853C642.96 245.908 643.211 245.964 643.452 246.029L643.461 246.001C643.461 246.001 647.575 246.439 649.654 248.038C654.965 252.112 650.852 266.891 650.852 266.891C650.852 266.891 651.112 267.682 647.547 267.477C646.943 267.44 646.358 267.384 645.801 267.31C643.944 271.672 639.274 280.648 640.639 282.573C640.992 283.075 641.883 284.024 641.985 284.647C642.375 286.935 637.222 287.735 635.012 287.921C631.651 288.2 627.789 288.014 624.418 287.856C621.865 287.735 616.285 286.842 615.886 283.68C615.811 283.056 616.118 282.564 616.424 282.108C616.814 281.531 617.715 280.834 618.04 280.201C618.82 278.666 619.497 272.221 619.228 270.575C619.033 269.272 618.133 268.417 617.39 266.491Z" fill="#A600A9"/>
<path d="M626.805 234.05C627.139 232.357 627.12 231.408 626.563 230.283C626.377 229.911 626.136 229.557 625.811 229.325C625.59 229.17 625.334 229.075 625.065 229.047C624.797 229.019 624.527 229.061 624.279 229.167C623.954 229.306 623.694 229.567 623.508 229.883C622.923 227.613 622.803 225.195 622.97 222.842C623.239 219.103 625.486 216.22 628.773 214.862C634.854 212.36 643.582 214.834 646.052 220.805C647.918 225.316 646.971 231.836 643.406 235.612C640.249 238.961 635.699 239.453 631.512 238.765C629.367 238.412 626.052 238.626 624.948 235.705C624.864 235.482 625.059 235.249 625.282 235.268C626.136 235.352 626.74 234.366 626.805 234.05Z" fill="black"/>
<path d="M638.652 236.691C640.407 236.198 642.292 237.184 643.461 238.579C644.808 240.198 645.393 242.709 644.13 244.392C643.656 245.025 642.988 245.471 642.301 245.853C640.212 247.015 637.742 247.703 635.421 247.127C633.1 246.559 631.066 244.476 631.094 242.086C631.122 239.919 632.7 238.114 634.288 236.654" fill="black"/>
<path d="M625.811 229.325C625.811 229.325 627.594 229.343 625.263 235.277C622.933 241.211 622.71 252.419 622.71 252.419C622.71 252.419 629.07 255.061 637.631 254.837C646.191 254.614 647.064 254.614 647.287 253.954C647.51 253.293 652.774 221.205 641.14 215.708" fill="black"/>
<path opacity="0.5" d="M572.08 464.788C600.088 464.788 622.794 461.444 622.794 457.32C622.794 453.195 600.088 449.851 572.08 449.851C544.072 449.851 521.366 453.195 521.366 457.32C521.366 461.444 544.072 464.788 572.08 464.788Z" fill="#000640"/>
<path d="M513.901 354.553H562.034L559.954 349.93H511.998L513.901 354.553Z" fill="black"/>
<path d="M605.199 457.524H599.498L528.376 276.964H534.616L605.199 457.524Z" fill="black"/>
<path d="M503.679 328.631H551.811L549.731 324.009H501.775L503.679 328.631ZM493.363 302.347H541.496L539.416 297.715H491.46L493.363 302.347ZM553.891 457.524H548.19L477.069 276.964H483.317L553.891 457.524Z" fill="black"/>
<path d="M544.3 433.053H592.442L590.362 428.431H542.406L544.3 433.053ZM534.17 406.759H582.302L580.223 402.137H532.267L534.17 406.759ZM523.938 381.024H572.08L570 376.401H522.044L523.938 381.024Z" fill="black"/>
<path d="M540.929 179.853L539.165 176.179C539.165 176.179 535.767 177.267 533.056 177.407C530.345 177.546 529.258 178.086 529.258 178.086L527.086 181.62C527.086 181.62 535.498 183.248 540.929 179.853Z" fill="url(#paint39_linear_1_4109)"/>
<path d="M540.929 179.853C540.929 179.853 545.405 179.444 547.717 180.801C550.029 182.159 552.47 190.726 553.278 196.576C554.095 202.426 555.451 225.13 555.59 229.753C555.729 234.375 555.59 244.848 555.59 244.848C555.59 244.848 543.371 247.434 534.959 247.164C526.547 246.894 519.89 240.225 519.89 240.225C519.89 240.225 520.568 230.571 521.654 227.446C522.74 224.321 524.505 218.61 523.418 213.848C522.332 209.086 519.073 195.358 519.89 190.186C520.707 185.015 519.89 184.066 522.74 183.117C525.591 182.169 527.086 181.62 527.086 181.62C527.086 181.62 534.282 183.248 540.929 179.853Z" fill="url(#paint40_linear_1_4109)"/>
<path d="M529.528 191.228C529.528 191.228 528.803 196.939 524.458 203.468C520.113 209.997 514.691 216.434 512.88 217.429C511.07 218.424 507.272 218.247 505.192 216.61C503.112 214.983 488.721 198.297 488.721 198.297C488.721 198.297 488.628 196.306 490.262 194.576C491.887 192.856 493.521 192.856 493.521 192.856L507.365 204.547C507.365 204.547 516.139 189.684 518.312 187.052C520.484 184.42 522.657 183.787 524.375 184.057C526.092 184.336 529.713 187.415 529.528 191.228Z" fill="url(#paint41_linear_1_4109)"/>
<path d="M492.518 192.949C492.518 192.949 489.529 189.777 487.904 188.865C486.279 187.963 481.024 186.875 480.3 186.959C479.575 187.052 479.557 187.545 480.458 188C481.358 188.456 483.373 189.042 483.373 189.042C483.373 189.042 480.838 190.586 480.838 191.674C480.838 192.763 482.463 194.846 483.466 194.846C484.459 194.846 485.908 194.576 485.908 194.576L488.897 196.846C488.897 196.846 489.529 194.037 492.518 192.949Z" fill="white"/>
<path d="M548.255 181.211C548.116 181.062 561.217 192.428 564.81 197.599C568.403 202.77 571.458 210.314 570.984 212.35C570.511 214.387 566.843 218.201 564.401 220.238C561.959 222.275 555.507 226.627 555.507 226.627L554.968 213.708C554.968 213.708 559.378 209.625 558.97 209.086C558.561 208.546 554.086 204.054 554.086 204.054C554.086 204.054 553.473 195.218 552.053 190.326C550.632 185.424 549.546 182.569 548.255 181.211Z" fill="url(#paint42_linear_1_4109)"/>
<path d="M520.549 240.83C522.434 242.486 528.107 246.931 534.95 247.155C543.362 247.424 555.581 244.839 555.581 244.839C555.581 244.839 554.086 254.763 552.87 258.706C551.644 262.65 550.836 267.682 550.697 269.31C550.558 270.937 553 298.273 553.408 306.02C553.817 313.768 552.777 338.881 552.777 338.881H545.173C545.173 338.881 542.415 308.606 539.973 291.883C537.531 275.16 536.306 266.184 536.306 266.184L534.541 269.179C534.541 269.179 533.724 298.552 533.047 311.601C532.369 324.65 530.92 339.02 530.92 339.02L522.908 339.43C522.908 339.43 519.742 289.716 519.333 275.439C518.962 261.971 520.391 242.951 520.549 240.83Z" fill="url(#paint43_linear_1_4109)"/>
<path d="M552.331 338.974C552.331 338.974 553.51 345.587 553.51 346.498C553.51 347.4 553.148 350.488 553.148 350.488C553.148 350.488 547.624 350.674 543.826 350.581C540.029 350.488 535.591 349.586 535.591 349.586C535.591 349.586 534.866 347.14 535.86 345.782C536.853 344.424 540.744 344.154 541.923 342.797C543.102 341.439 545.182 338.899 545.182 338.899C545.182 338.899 551.245 339.337 552.331 338.974Z" fill="url(#paint44_linear_1_4109)"/>
<path d="M530.345 338.974C530.345 338.974 531.524 345.587 531.524 346.498C531.524 347.4 531.162 350.488 531.162 350.488C531.162 350.488 525.647 350.674 521.84 350.581C518.042 350.488 513.604 349.586 513.604 349.586C513.604 349.586 512.88 347.14 513.874 345.782C514.867 344.424 518.757 344.154 519.936 342.797C521.116 341.439 523.195 338.899 523.195 338.899C523.195 338.899 529.258 339.337 530.345 338.974Z" fill="url(#paint45_linear_1_4109)"/>
<path d="M539.119 175.723C539.119 175.723 540.168 162.079 539.026 158.498C537.67 154.238 534.95 151.243 530.698 151.066C526.445 150.88 519.389 151.243 517.485 153.605C515.582 155.959 516.575 159.409 516.761 160.497C516.947 161.586 518.748 162.767 518.748 162.767C518.748 162.767 521.459 162.041 522.276 162.674C523.093 163.306 524.356 166.115 524.356 166.115C524.356 166.115 525.275 163.427 526.436 163.939C529.333 165.204 528.423 169.017 527.977 169.826C527.401 170.868 527.977 170.096 527.977 170.096L534.402 177.072C534.412 177.081 537.039 177.36 539.119 175.723Z" fill="black"/>
<path d="M522.286 162.674C523.103 163.306 524.365 166.115 524.365 166.115C524.365 166.115 525.285 163.427 526.445 163.939C529.342 165.204 528.432 169.017 527.986 169.826C527.411 170.868 527.986 170.096 527.986 170.096L534.412 177.072L529.258 178.067L529.073 176.802C529.073 176.802 527.086 177.528 525.907 177.528C524.727 177.528 523.372 175.081 521.831 172.449C520.289 169.817 518.757 162.748 518.757 162.748C518.757 162.748 521.478 162.041 522.286 162.674Z" fill="white"/>
<path d="M217.846 330.222C217.846 330.222 232.071 330.222 237.001 329.403L241.931 328.585L260.157 326.287L258.532 332.11C258.532 332.11 252.051 334.416 246.388 335.932C240.715 337.449 229.712 340.425 228.004 340.853C226.295 341.271 217.076 343.234 217.076 343.234" fill="url(#paint46_linear_1_4109)"/>
<path d="M183.279 355.25C183.279 355.25 178.534 359.129 177.03 362.635C175.535 366.142 175.285 371.146 175.535 372.894C175.786 374.643 176.408 376.401 176.408 376.02C176.408 375.648 174.412 402.918 174.412 402.918C174.412 402.918 165.916 410.173 162.667 416.181C159.417 422.19 152.175 438.448 152.175 438.448C152.175 438.448 158.043 441.322 160.169 441.703L162.295 442.075C162.295 442.075 171.413 423.185 174.161 419.799C175.897 417.66 182.778 411.912 185.405 407.41C188.023 402.909 192.777 384.139 192.777 384.139C192.777 384.139 198.896 390.771 201.644 393.775C204.393 396.779 207.763 401.03 207.763 402.155C207.763 403.281 205.386 411.661 204.764 414.665C204.142 417.669 201.644 438.308 201.644 438.308C201.644 438.308 205.145 439.062 208.144 438.68C211.143 438.308 211.644 437.676 211.644 437.676C211.644 437.676 213.389 423.408 215.014 416.404C216.639 409.401 218.515 403.513 219.016 402.388C219.517 401.262 219.638 398.881 218.013 394.008C216.388 389.125 211.393 378.996 207.401 372.987L203.408 366.979C203.408 366.979 190.15 360.133 183.279 355.25Z" fill="black"/>
<path d="M192.48 385.321C193.706 378.521 194.467 372.894 194.467 372.894L189.583 392.929C188.302 400.267 182.61 411.103 182.61 411.103C182.61 411.103 182.61 411.131 182.62 411.177C183.734 409.903 184.718 408.629 185.414 407.438C187.633 403.597 191.394 389.469 192.48 385.321Z" fill="url(#paint47_linear_1_4109)"/>
<path d="M201.644 438.336C201.644 438.336 199.602 441.508 199.518 441.926C199.434 442.345 199.017 446.726 199.017 446.726L206.008 448.288L206.509 446.93C206.509 446.93 213.668 450.52 215.005 450.604C216.342 450.688 222.916 450.604 223.835 450.353C224.754 450.102 225.998 448.437 224.754 447.935C223.501 447.432 219.257 447.265 218.255 446.688C217.252 446.102 212.173 441.433 211.672 440.103C211.17 438.764 211.003 438.02 211.003 438.02C211.003 438.02 208.348 439.499 201.644 438.336Z" fill="url(#paint48_linear_1_4109)"/>
<path d="M152.37 438.708C152.37 438.708 150.123 441.833 149.686 443.21C149.25 444.586 147.811 448.967 147.811 448.967C147.811 448.967 149.872 450.595 151.311 451.153C152.75 451.711 153.057 451.841 153.057 451.841L154.06 450.837C154.06 450.837 157.43 454.092 160.308 454.836C163.177 455.589 168.99 455.841 170.986 455.338C172.982 454.836 173.92 452.901 173.112 452.213C172.304 451.525 169.556 451.274 167.866 449.832C166.176 448.39 163.057 445.823 162.62 444.512C162.184 443.201 162.304 442.075 162.304 442.075C162.304 442.075 161.487 442.652 152.37 438.708Z" fill="url(#paint49_linear_1_4109)"/>
<path d="M224.875 449.572C223.863 449.739 222.331 449.795 220.084 449.925C215.674 450.176 214.337 448.837 209.341 447.088C205.377 445.693 200.985 443.991 199.351 443.349C199.202 444.772 199.017 446.716 199.017 446.716L206.008 448.279L206.509 446.921C206.509 446.921 213.668 450.511 215.005 450.595C216.342 450.679 222.916 450.595 223.835 450.344C224.188 450.251 224.587 449.944 224.875 449.572Z" fill="url(#paint50_linear_1_4109)"/>
<path d="M171.209 454.594C169.63 455.096 162.212 455.18 158.888 453.59C156.177 452.297 150.773 447.535 148.842 445.805C148.331 447.367 147.811 448.967 147.811 448.967C147.811 448.967 149.872 450.595 151.311 451.153C152.75 451.711 153.057 451.841 153.057 451.841L154.06 450.837C154.06 450.837 157.43 454.092 160.308 454.836C163.177 455.589 168.99 455.84 170.986 455.338C172.295 455.013 173.149 454.064 173.353 453.255C172.703 453.897 171.933 454.371 171.209 454.594ZM183.279 355.25L184.532 353L204.43 365.258L203.39 367.007C203.39 367.016 187.615 358.841 183.279 355.25Z" fill="black"/>
<path d="M184.532 353C184.217 352.804 198.441 334.649 203.938 328.808C209.434 322.967 214.346 319.712 218.264 319.963C222.182 320.214 228.254 325.887 229.508 331.059C230.761 336.23 225.757 346.908 224.596 348.824C223.426 350.74 217.688 354.079 213.269 357.501C208.858 360.924 207.689 362.505 206.444 363.426C205.191 364.347 204.448 365.258 204.448 365.258C204.448 365.258 187.364 354.758 184.532 353Z" fill="url(#paint51_linear_1_4109)"/>
<path d="M185.507 353.316C185.86 353.083 193.065 341.197 204.457 329.319C211.755 321.711 217.595 320.232 217.595 320.232C217.595 320.232 214.29 319.767 207.475 325.357C201.663 330.138 184.514 353 184.514 353L185.507 353.316Z" fill="white"/>
<path d="M227.827 327.143C227.827 327.143 235.404 321.637 236.574 320.558C237.743 319.47 243.073 318.977 245.812 320.307C248.56 321.646 251.81 329.152 251.726 331.486C251.643 333.821 249.897 335.653 249.897 335.653L247.233 334.984C247.233 334.984 245.153 337.318 244.401 337.737C243.649 338.155 242.572 338.155 242.572 338.155C242.572 338.155 240.826 341.745 240.241 341.745C239.656 341.745 237.827 340.499 237.827 340.499C237.827 340.499 232.247 342.415 231.996 341.913C231.746 341.411 228.914 337.411 228.914 337.411C228.914 337.411 231.244 332.231 227.827 327.143Z" fill="black"/>
<path d="M219.415 320.307C219.415 320.307 233.491 322.39 238.486 322.306L243.481 322.223L266.796 319.637L267.381 325.143C267.381 325.143 252.646 329.478 246.815 330.147C240.984 330.817 229.666 332.147 227.911 332.314C226.165 332.482 216.751 333.068 216.751 333.068" fill="url(#paint52_linear_1_4109)"/>
<path d="M266.879 320.725C266.879 320.725 270.788 318.977 271.289 317.972C271.791 316.968 271.624 313.722 272.209 312.382C272.794 311.043 275.375 307.462 275.876 307.462C276.378 307.462 276.712 307.546 276.461 309.797C276.21 312.048 275.625 314.801 275.625 315.889C275.625 316.977 275.876 320.139 275.124 321.06C274.372 321.981 272.961 322.307 271.958 322.809C270.955 323.311 267.213 324.064 267.213 324.064L266.879 320.725Z" fill="white"/>
<path d="M159.863 101.232H237.419V107.212H159.863V101.232Z" fill="#005CB4"/>
<path d="M197.15 113.937H274.706V119.917H197.15V113.937Z" fill="#00759F"/>
<path d="M106.921 125.135H245.181V131.116H106.921V125.135Z" fill="#4529AC"/>
<path d="M314.974 131.116H453.234V137.096H314.974V131.116Z" fill="#3129AC"/>
<path d="M335.41 118.411H384.629V124.391H335.41V118.411Z" fill="#4529AC"/>
<path d="M429.066 119.164H482.315V125.145H429.066V119.164Z" fill="#0075B4"/>
<path opacity="0.3" d="M585.079 121.406H638.327V127.386H585.079V121.406Z" fill="white"/>
<path opacity="0.1" d="M531.31 101.232H584.559V107.212H531.31V101.232Z" fill="white"/>
<path d="M318.261 60.8934H369.718V66.874H318.261V60.8934Z" fill="#00759F"/>
<path d="M343.618 77.3282H404.016V83.3088H343.618V77.3282Z" fill="#313BAC"/>
<path d="M356.088 445.637C404.977 445.637 444.609 405.936 444.609 356.962C444.609 307.988 404.977 268.286 356.088 268.286C307.199 268.286 267.566 307.988 267.566 356.962C267.566 405.936 307.199 445.637 356.088 445.637Z" fill="url(#paint53_linear_1_4109)"/>
<path d="M356.088 268.296V356.971L432.511 312.206C417.144 285.93 388.677 268.296 356.088 268.296Z" fill="url(#paint54_linear_1_4109)"/>
<path opacity="0.3" d="M331.176 57.6753C328.465 57.6753 325.931 58.4194 323.758 59.7122C323.238 52.1412 316.952 46.1607 309.264 46.1607C307.602 46.1607 306.015 46.4583 304.529 46.9699C302.384 40.0314 295.931 34.9902 288.299 34.9902C287.724 34.9902 287.157 35.0274 286.6 35.0832C279.469 35.5297 273.536 40.3662 271.475 46.942C269.98 46.4211 268.383 46.1235 266.712 46.1235C259.024 46.1235 252.738 52.104 252.219 59.675C249.974 58.3382 247.411 57.6344 244.8 57.6381C236.769 57.6381 230.26 64.1581 230.26 72.1941C230.26 80.2302 236.769 86.7501 244.8 86.7501C245.338 86.7501 245.858 86.7222 246.388 86.6571H268.708C269.358 86.7315 270.017 86.7873 270.695 86.7873C271.28 86.7873 271.856 86.7594 272.432 86.7036H304.306C304.631 86.7222 304.956 86.7501 305.281 86.7501C305.615 86.7501 305.931 86.7222 306.256 86.7036H329.589C330.109 86.7594 330.638 86.7873 331.176 86.7873C339.208 86.7873 345.707 80.2674 345.707 72.2313C345.716 64.1953 339.208 57.6753 331.176 57.6753Z" fill="url(#paint55_linear_1_4109)"/>
</g>
<defs>
<linearGradient id="paint0_linear_1_4109" x1="37245.6" y1="5001.53" x2="37194.1" y2="4602.62" gradientUnits="userSpaceOnUse">
<stop stop-color="#7700BB"/>
<stop offset="1" stop-color="#00008B"/>
</linearGradient>
<linearGradient id="paint1_linear_1_4109" x1="70.6099" y1="19519" x2="70321.1" y2="19519" gradientUnits="userSpaceOnUse">
<stop stop-color="#7700BB"/>
<stop offset="1"/>
</linearGradient>
<linearGradient id="paint2_linear_1_4109" x1="2599.64" y1="4485.39" x2="2457.43" y2="1093.41" gradientUnits="userSpaceOnUse">
<stop stop-color="#88CFDA"/>
<stop offset="0.0506" stop-color="#93D1D5"/>
<stop offset="0.2502" stop-color="#BAD7C2"/>
<stop offset="0.4481" stop-color="#D8DBB3"/>
<stop offset="0.6414" stop-color="#EEDEA8"/>
<stop offset="0.8279" stop-color="#FBE0A2"/>
<stop offset="1" stop-color="#FFE1A0"/>
</linearGradient>
<linearGradient id="paint3_linear_1_4109" x1="521.266" y1="433.605" x2="521.266" y2="7405.86" gradientUnits="userSpaceOnUse">
<stop stop-color="#7633FF"/>
<stop offset="0.1585" stop-color="#7137FF"/>
<stop offset="0.3535" stop-color="#6243FF"/>
<stop offset="0.5676" stop-color="#4957FF"/>
<stop offset="0.7937" stop-color="#2672FF"/>
<stop offset="1" stop-color="#0090FF"/>
</linearGradient>
<linearGradient id="paint4_linear_1_4109" x1="536.698" y1="-1896" x2="536.698" y2="5076.3" gradientUnits="userSpaceOnUse">
<stop stop-color="#7633FF"/>
<stop offset="0.1585" stop-color="#7137FF"/>
<stop offset="0.3535" stop-color="#6243FF"/>
<stop offset="0.5676" stop-color="#4957FF"/>
<stop offset="0.7937" stop-color="#2672FF"/>
<stop offset="1" stop-color="#0090FF"/>
</linearGradient>
<linearGradient id="paint5_linear_1_4109" x1="551.244" y1="-419.054" x2="551.244" y2="6553.3" gradientUnits="userSpaceOnUse">
<stop stop-color="#7633FF"/>
<stop offset="0.1585" stop-color="#7137FF"/>
<stop offset="0.3535" stop-color="#6243FF"/>
<stop offset="0.5676" stop-color="#4957FF"/>
<stop offset="0.7937" stop-color="#2672FF"/>
<stop offset="1" stop-color="#0090FF"/>
</linearGradient>
<linearGradient id="paint6_linear_1_4109" x1="565.759" y1="168.409" x2="565.759" y2="7140.74" gradientUnits="userSpaceOnUse">
<stop stop-color="#7633FF"/>
<stop offset="0.1585" stop-color="#7137FF"/>
<stop offset="0.3535" stop-color="#6243FF"/>
<stop offset="0.5676" stop-color="#4957FF"/>
<stop offset="0.7937" stop-color="#2672FF"/>
<stop offset="1" stop-color="#0090FF"/>
</linearGradient>
<linearGradient id="paint7_linear_1_4109" x1="581.145" y1="-2035.95" x2="581.145" y2="4936.33" gradientUnits="userSpaceOnUse">
<stop stop-color="#7633FF"/>
<stop offset="0.1585" stop-color="#7137FF"/>
<stop offset="0.3535" stop-color="#6243FF"/>
<stop offset="0.5676" stop-color="#4957FF"/>
<stop offset="0.7937" stop-color="#2672FF"/>
<stop offset="1" stop-color="#0090FF"/>
</linearGradient>
<linearGradient id="paint8_linear_1_4109" x1="595.737" y1="-2896.92" x2="595.737" y2="4075.41" gradientUnits="userSpaceOnUse">
<stop stop-color="#7633FF"/>
<stop offset="0.1585" stop-color="#7137FF"/>
<stop offset="0.3535" stop-color="#6243FF"/>
<stop offset="0.5676" stop-color="#4957FF"/>
<stop offset="0.7937" stop-color="#2672FF"/>
<stop offset="1" stop-color="#0090FF"/>
</linearGradient>
<linearGradient id="paint9_linear_1_4109" x1="610.229" y1="-270.766" x2="610.229" y2="6701.53" gradientUnits="userSpaceOnUse">
<stop stop-color="#7633FF"/>
<stop offset="0.1585" stop-color="#7137FF"/>
<stop offset="0.3535" stop-color="#6243FF"/>
<stop offset="0.5676" stop-color="#4957FF"/>
<stop offset="0.7937" stop-color="#2672FF"/>
<stop offset="1" stop-color="#0090FF"/>
</linearGradient>
<linearGradient id="paint10_linear_1_4109" x1="625.653" y1="-1380.34" x2="625.653" y2="5591.96" gradientUnits="userSpaceOnUse">
<stop stop-color="#7633FF"/>
<stop offset="0.1585" stop-color="#7137FF"/>
<stop offset="0.3535" stop-color="#6243FF"/>
<stop offset="0.5676" stop-color="#4957FF"/>
<stop offset="0.7937" stop-color="#2672FF"/>
<stop offset="1" stop-color="#0090FF"/>
</linearGradient>
<linearGradient id="paint11_linear_1_4109" x1="640.184" y1="-493.658" x2="640.184" y2="6478.69" gradientUnits="userSpaceOnUse">
<stop stop-color="#7633FF"/>
<stop offset="0.1585" stop-color="#7137FF"/>
<stop offset="0.3535" stop-color="#6243FF"/>
<stop offset="0.5676" stop-color="#4957FF"/>
<stop offset="0.7937" stop-color="#2672FF"/>
<stop offset="1" stop-color="#0090FF"/>
</linearGradient>
<linearGradient id="paint12_linear_1_4109" x1="654.745" y1="-2384.01" x2="654.745" y2="4588.3" gradientUnits="userSpaceOnUse">
<stop stop-color="#7633FF"/>
<stop offset="0.1585" stop-color="#7137FF"/>
<stop offset="0.3535" stop-color="#6243FF"/>
<stop offset="0.5676" stop-color="#4957FF"/>
<stop offset="0.7937" stop-color="#2672FF"/>
<stop offset="1" stop-color="#0090FF"/>
</linearGradient>
<linearGradient id="paint13_linear_1_4109" x1="669.252" y1="-1615.15" x2="669.252" y2="5357.12" gradientUnits="userSpaceOnUse">
<stop stop-color="#7633FF"/>
<stop offset="0.1585" stop-color="#7137FF"/>
<stop offset="0.3535" stop-color="#6243FF"/>
<stop offset="0.5676" stop-color="#4957FF"/>
<stop offset="0.7937" stop-color="#2672FF"/>
<stop offset="1" stop-color="#0090FF"/>
</linearGradient>
<linearGradient id="paint14_linear_1_4109" x1="18196.9" y1="24734.1" x2="18196.9" y2="530.143" gradientUnits="userSpaceOnUse">
<stop stop-color="#A1BAFF"/>
<stop offset="0.4332" stop-color="white"/>
</linearGradient>
<linearGradient id="paint15_linear_1_4109" x1="16254.1" y1="13784.5" x2="16254.1" y2="-431.024" gradientUnits="userSpaceOnUse">
<stop stop-color="#88CFDA"/>
<stop offset="0.0506" stop-color="#93D1D5"/>
<stop offset="0.2502" stop-color="#BAD7C2"/>
<stop offset="0.4481" stop-color="#D8DBB3"/>
<stop offset="0.6414" stop-color="#EEDEA8"/>
<stop offset="0.8279" stop-color="#FBE0A2"/>
<stop offset="1" stop-color="#FFE1A0"/>
</linearGradient>
<linearGradient id="paint16_linear_1_4109" x1="8598.03" y1="14810.5" x2="8598.03" y2="-4113.9" gradientUnits="userSpaceOnUse">
<stop stop-color="#88CFDA"/>
<stop offset="0.1838" stop-color="#98D1D2"/>
<stop offset="0.5428" stop-color="#C2D8BE"/>
<stop offset="1" stop-color="#FFE1A0"/>
</linearGradient>
<linearGradient id="paint17_linear_1_4109" x1="1282.4" y1="8067.91" x2="1282.4" y2="160.982" gradientUnits="userSpaceOnUse">
<stop stop-color="#7633FF"/>
<stop offset="0.1585" stop-color="#7137FF"/>
<stop offset="0.3535" stop-color="#6243FF"/>
<stop offset="0.5676" stop-color="#4957FF"/>
<stop offset="0.7937" stop-color="#2672FF"/>
<stop offset="1" stop-color="#0090FF"/>
</linearGradient>
<linearGradient id="paint18_linear_1_4109" x1="325.32" y1="541.759" x2="1071.25" y2="541.759" gradientUnits="userSpaceOnUse">
<stop stop-color="#7633FF"/>
<stop offset="0.1585" stop-color="#7137FF"/>
<stop offset="0.3535" stop-color="#6243FF"/>
<stop offset="0.5676" stop-color="#4957FF"/>
<stop offset="0.7937" stop-color="#2672FF"/>
<stop offset="1" stop-color="#0090FF"/>
</linearGradient>
<linearGradient id="paint19_linear_1_4109" x1="325.32" y1="566.719" x2="1071.25" y2="566.719" gradientUnits="userSpaceOnUse">
<stop stop-color="#7633FF"/>
<stop offset="0.1585" stop-color="#7137FF"/>
<stop offset="0.3535" stop-color="#6243FF"/>
<stop offset="0.5676" stop-color="#4957FF"/>
<stop offset="0.7937" stop-color="#2672FF"/>
<stop offset="1" stop-color="#0090FF"/>
</linearGradient>
<linearGradient id="paint20_linear_1_4109" x1="325.32" y1="594.873" x2="1071.25" y2="594.873" gradientUnits="userSpaceOnUse">
<stop stop-color="#7633FF"/>
<stop offset="0.1585" stop-color="#7137FF"/>
<stop offset="0.3535" stop-color="#6243FF"/>
<stop offset="0.5676" stop-color="#4957FF"/>
<stop offset="0.7937" stop-color="#2672FF"/>
<stop offset="1" stop-color="#0090FF"/>
</linearGradient>
<linearGradient id="paint21_linear_1_4109" x1="517.637" y1="3379.17" x2="14645.1" y2="3379.17" gradientUnits="userSpaceOnUse">
<stop stop-color="#270036"/>
<stop offset="0.5936" stop-color="#4F008B"/>
<stop offset="1" stop-color="#4C24B1"/>
</linearGradient>
<linearGradient id="paint22_linear_1_4109" x1="1207.63" y1="8421.64" x2="1207.63" y2="128.617" gradientUnits="userSpaceOnUse">
<stop stop-color="#7633FF"/>
<stop offset="0.1585" stop-color="#7137FF"/>
<stop offset="0.3535" stop-color="#6243FF"/>
<stop offset="0.5676" stop-color="#4957FF"/>
<stop offset="0.7937" stop-color="#2672FF"/>
<stop offset="1" stop-color="#0090FF"/>
</linearGradient>
<linearGradient id="paint23_linear_1_4109" x1="1225.75" y1="4425.78" x2="1225.75" y2="336.328" gradientUnits="userSpaceOnUse">
<stop stop-color="#7633FF"/>
<stop offset="0.1585" stop-color="#7137FF"/>
<stop offset="0.3535" stop-color="#6243FF"/>
<stop offset="0.5676" stop-color="#4957FF"/>
<stop offset="0.7937" stop-color="#2672FF"/>
<stop offset="1" stop-color="#0090FF"/>
</linearGradient>
<linearGradient id="paint24_linear_1_4109" x1="1244.73" y1="3132.73" x2="1244.73" y2="285.32" gradientUnits="userSpaceOnUse">
<stop stop-color="#311341"/>
<stop offset="0.2299" stop-color="#3113C2"/>
<stop offset="0.3479" stop-color="#2F18C5"/>
<stop offset="0.4931" stop-color="#2927CC"/>
<stop offset="0.6524" stop-color="#1F40D8"/>
<stop offset="0.8219" stop-color="#1263E9"/>
<stop offset="0.9978" stop-color="#008FFF"/>
<stop offset="1" stop-color="#0090FF"/>
</linearGradient>
<linearGradient id="paint25_linear_1_4109" x1="735.865" y1="4734.36" x2="735.865" y2="-146.215" gradientUnits="userSpaceOnUse">
<stop stop-color="#7633FF"/>
<stop offset="0.1585" stop-color="#7137FF"/>
<stop offset="0.3535" stop-color="#6243FF"/>
<stop offset="0.5676" stop-color="#4957FF"/>
<stop offset="0.7937" stop-color="#2672FF"/>
<stop offset="1" stop-color="#0090FF"/>
</linearGradient>
<linearGradient id="paint26_linear_1_4109" x1="744.416" y1="5137.61" x2="744.416" y2="151.952" gradientUnits="userSpaceOnUse">
<stop stop-color="#311341"/>
<stop offset="0.2299" stop-color="#3113C2"/>
<stop offset="0.3479" stop-color="#2F18C5"/>
<stop offset="0.4931" stop-color="#2927CC"/>
<stop offset="0.6524" stop-color="#1F40D8"/>
<stop offset="0.8219" stop-color="#1263E9"/>
<stop offset="0.9978" stop-color="#008FFF"/>
<stop offset="1" stop-color="#0090FF"/>
</linearGradient>
<linearGradient id="paint27_linear_1_4109" x1="150.737" y1="1813.16" x2="2886.72" y2="1813.16" gradientUnits="userSpaceOnUse">
<stop stop-color="#7633FF"/>
<stop offset="0.1585" stop-color="#7137FF"/>
<stop offset="0.3535" stop-color="#6243FF"/>
<stop offset="0.5676" stop-color="#4957FF"/>
<stop offset="0.7937" stop-color="#2672FF"/>
<stop offset="1" stop-color="#0090FF"/>
</linearGradient>
<linearGradient id="paint28_linear_1_4109" x1="906.351" y1="707.993" x2="-276.229" y2="1457.54" gradientUnits="userSpaceOnUse">
<stop stop-color="#A1BAFF"/>
<stop offset="0.4332" stop-color="white"/>
</linearGradient>
<linearGradient id="paint29_linear_1_4109" x1="1151.28" y1="12353" x2="764.466" y2="3125.68" gradientUnits="userSpaceOnUse">
<stop stop-color="#A1BAFF"/>
<stop offset="0.4332" stop-color="white"/>
<stop offset="0.5794" stop-color="#FBFCFF"/>
<stop offset="0.7123" stop-color="#F0F4FF"/>
<stop offset="0.84" stop-color="#DEE7FF"/>
<stop offset="0.9637" stop-color="#C4D4FF"/>
<stop offset="1" stop-color="#BBCDFF"/>
</linearGradient>
<linearGradient id="paint30_linear_1_4109" x1="1927.11" y1="12447.1" x2="1540.44" y2="3219.01" gradientUnits="userSpaceOnUse">
<stop stop-color="#A1BAFF"/>
<stop offset="0.4332" stop-color="white"/>
<stop offset="0.5794" stop-color="#FBFCFF"/>
<stop offset="0.7123" stop-color="#F0F4FF"/>
<stop offset="0.84" stop-color="#DEE7FF"/>
<stop offset="0.9637" stop-color="#C4D4FF"/>
<stop offset="1" stop-color="#BBCDFF"/>
</linearGradient>
<linearGradient id="paint31_linear_1_4109" x1="1749.07" y1="787.457" x2="2769.04" y2="5878.25" gradientUnits="userSpaceOnUse">
<stop stop-color="#311341"/>
<stop offset="0.6346" stop-color="#3113C2"/>
<stop offset="0.6906" stop-color="#2F18C5"/>
<stop offset="0.7595" stop-color="#2927CC"/>
<stop offset="0.8351" stop-color="#1F40D8"/>
<stop offset="0.9155" stop-color="#1263E9"/>
<stop offset="0.999" stop-color="#008FFF"/>
<stop offset="1" stop-color="#0090FF"/>
</linearGradient>
<linearGradient id="paint32_linear_1_4109" x1="119.803" y1="942.668" x2="1518.28" y2="942.668" gradientUnits="userSpaceOnUse">
<stop stop-color="#A1BAFF"/>
<stop offset="0.4332" stop-color="white"/>
</linearGradient>
<linearGradient id="paint33_linear_1_4109" x1="127.043" y1="484.393" x2="1910.67" y2="484.393" gradientUnits="userSpaceOnUse">
<stop stop-color="#88CFDA"/>
<stop offset="0.0506" stop-color="#93D1D5"/>
<stop offset="0.2502" stop-color="#BAD7C2"/>
<stop offset="0.4481" stop-color="#D8DBB3"/>
<stop offset="0.6414" stop-color="#EEDEA8"/>
<stop offset="0.8279" stop-color="#FBE0A2"/>
<stop offset="1" stop-color="#FFE1A0"/>
</linearGradient>
<linearGradient id="paint34_linear_1_4109" x1="114.783" y1="2479.59" x2="4439.74" y2="2479.59" gradientUnits="userSpaceOnUse">
<stop stop-color="#88CFDA"/>
<stop offset="0.0506" stop-color="#93D1D5"/>
<stop offset="0.2502" stop-color="#BAD7C2"/>
<stop offset="0.4481" stop-color="#D8DBB3"/>
<stop offset="0.6414" stop-color="#EEDEA8"/>
<stop offset="0.8279" stop-color="#FBE0A2"/>
<stop offset="1" stop-color="#FFE1A0"/>
</linearGradient>
<linearGradient id="paint35_linear_1_4109" x1="622.32" y1="445.66" x2="2213.6" y2="3500.54" gradientUnits="userSpaceOnUse">
<stop stop-color="#311341"/>
<stop offset="0.6346" stop-color="#3113C2"/>
<stop offset="0.6906" stop-color="#2F18C5"/>
<stop offset="0.7595" stop-color="#2927CC"/>
<stop offset="0.8351" stop-color="#1F40D8"/>
<stop offset="0.9155" stop-color="#1263E9"/>
<stop offset="0.999" stop-color="#008FFF"/>
<stop offset="1" stop-color="#0090FF"/>
</linearGradient>
<linearGradient id="paint36_linear_1_4109" x1="3244.75" y1="1773.71" x2="591.019" y2="1773.71" gradientUnits="userSpaceOnUse">
<stop stop-color="#7633FF"/>
<stop offset="0.1585" stop-color="#7137FF"/>
<stop offset="0.3535" stop-color="#6243FF"/>
<stop offset="0.5676" stop-color="#4957FF"/>
<stop offset="0.7937" stop-color="#2672FF"/>
<stop offset="1" stop-color="#0090FF"/>
</linearGradient>
<linearGradient id="paint37_linear_1_4109" x1="3114.98" y1="1284.76" x2="1403.23" y2="9829" gradientUnits="userSpaceOnUse">
<stop stop-color="#3822D1"/>
<stop offset="0.1652" stop-color="#3527D3"/>
<stop offset="0.3684" stop-color="#2E36DA"/>
<stop offset="0.5916" stop-color="#214FE4"/>
<stop offset="0.8272" stop-color="#0F72F2"/>
<stop offset="1" stop-color="#0090FF"/>
</linearGradient>
<linearGradient id="paint38_linear_1_4109" x1="2352.42" y1="485.05" x2="622.469" y2="485.05" gradientUnits="userSpaceOnUse">
<stop stop-color="#88CFDA"/>
<stop offset="0.0506" stop-color="#93D1D5"/>
<stop offset="0.2502" stop-color="#BAD7C2"/>
<stop offset="0.4481" stop-color="#D8DBB3"/>
<stop offset="0.6414" stop-color="#EEDEA8"/>
<stop offset="0.8279" stop-color="#FBE0A2"/>
<stop offset="1" stop-color="#FFE1A0"/>
</linearGradient>
<linearGradient id="paint39_linear_1_4109" x1="527.003" y1="467.634" x2="1911.42" y2="467.634" gradientUnits="userSpaceOnUse">
<stop stop-color="#7633FF"/>
<stop offset="0.1585" stop-color="#7137FF"/>
<stop offset="0.3535" stop-color="#6243FF"/>
<stop offset="0.5676" stop-color="#4957FF"/>
<stop offset="0.7937" stop-color="#2672FF"/>
<stop offset="1" stop-color="#0090FF"/>
</linearGradient>
<linearGradient id="paint40_linear_1_4109" x1="2141.29" y1="313.562" x2="2963.87" y2="6472.22" gradientUnits="userSpaceOnUse">
<stop stop-color="#7633FF"/>
<stop offset="0.1585" stop-color="#7137FF"/>
<stop offset="0.3535" stop-color="#6243FF"/>
<stop offset="0.5676" stop-color="#4957FF"/>
<stop offset="0.7937" stop-color="#2672FF"/>
<stop offset="1" stop-color="#0090FF"/>
</linearGradient>
<linearGradient id="paint41_linear_1_4109" x1="-758.818" y1="2284.05" x2="5100.64" y2="1460.19" gradientUnits="userSpaceOnUse">
<stop stop-color="#5E60FF"/>
<stop offset="0.1814" stop-color="#5963FF"/>
<stop offset="0.4044" stop-color="#4A6AFF"/>
<stop offset="0.6491" stop-color="#3177FF"/>
<stop offset="0.9079" stop-color="#0E89FF"/>
<stop offset="1" stop-color="#0090FF"/>
</linearGradient>
<linearGradient id="paint42_linear_1_4109" x1="1363.1" y1="2128.74" x2="2953.61" y2="3135.59" gradientUnits="userSpaceOnUse">
<stop stop-color="#591DDB"/>
<stop offset="0.1609" stop-color="#5522DD"/>
<stop offset="0.3589" stop-color="#4931E1"/>
<stop offset="0.5762" stop-color="#364AE9"/>
<stop offset="0.8058" stop-color="#1B6DF4"/>
<stop offset="1" stop-color="#0090FF"/>
</linearGradient>
<linearGradient id="paint43_linear_1_4109" x1="2335.6" y1="377.785" x2="2335.6" y2="10523.4" gradientUnits="userSpaceOnUse">
<stop stop-color="#311341"/>
<stop offset="0.2299" stop-color="#3113C2"/>
<stop offset="0.3479" stop-color="#2F18C5"/>
<stop offset="0.4931" stop-color="#2927CC"/>
<stop offset="0.6524" stop-color="#1F40D8"/>
<stop offset="0.8219" stop-color="#1263E9"/>
<stop offset="0.9978" stop-color="#008FFF"/>
<stop offset="1" stop-color="#0090FF"/>
</linearGradient>
<linearGradient id="paint44_linear_1_4109" x1="1443.82" y1="110.955" x2="1443.82" y2="1988.31" gradientUnits="userSpaceOnUse">
<stop stop-color="#270036"/>
<stop offset="0.5936" stop-color="#4F008B"/>
<stop offset="1" stop-color="#4C24B1"/>
</linearGradient>
<linearGradient id="paint45_linear_1_4109" x1="1421.71" y1="110.955" x2="1421.71" y2="1988.31" gradientUnits="userSpaceOnUse">
<stop stop-color="#270036"/>
<stop offset="0.5936" stop-color="#4F008B"/>
<stop offset="1" stop-color="#4C24B1"/>
</linearGradient>
<linearGradient id="paint46_linear_1_4109" x1="217.463" y1="1173.81" x2="7927.71" y2="1173.81" gradientUnits="userSpaceOnUse">
<stop stop-color="#311341"/>
<stop offset="0.2299" stop-color="#3113C2"/>
<stop offset="0.3479" stop-color="#2F18C5"/>
<stop offset="0.4931" stop-color="#2927CC"/>
<stop offset="0.6524" stop-color="#1F40D8"/>
<stop offset="0.8219" stop-color="#1263E9"/>
<stop offset="0.9978" stop-color="#008FFF"/>
<stop offset="1" stop-color="#0090FF"/>
</linearGradient>
<linearGradient id="paint47_linear_1_4109" x1="181.852" y1="2286.08" x2="1367.96" y2="2286.08" gradientUnits="userSpaceOnUse">
<stop stop-color="#7633FF"/>
<stop offset="0.1106" stop-color="#6640FF"/>
<stop offset="0.5243" stop-color="#2F6BFF"/>
<stop offset="0.8331" stop-color="#0D86FF"/>
<stop offset="1" stop-color="#0090FF"/>
</linearGradient>
<linearGradient id="paint48_linear_1_4109" x1="199.305" y1="1067.34" x2="2824.86" y2="1067.34" gradientUnits="userSpaceOnUse">
<stop stop-color="#27004F"/>
<stop offset="1" stop-color="#004C81"/>
</linearGradient>
<linearGradient id="paint49_linear_1_4109" x1="147.683" y1="1283.8" x2="2706.15" y2="1283.8" gradientUnits="userSpaceOnUse">
<stop stop-color="#27004F"/>
<stop offset="1" stop-color="#004C81"/>
</linearGradient>
<linearGradient id="paint50_linear_1_4109" x1="199.301" y1="807.25" x2="2784.86" y2="807.25" gradientUnits="userSpaceOnUse">
<stop stop-color="#27004F"/>
<stop offset="1" stop-color="#004C81"/>
</linearGradient>
<linearGradient id="paint51_linear_1_4109" x1="184.346" y1="2586.05" x2="4701.24" y2="2586.05" gradientUnits="userSpaceOnUse">
<stop stop-color="#A1BAFF"/>
<stop offset="0.4332" stop-color="white"/>
</linearGradient>
<linearGradient id="paint52_linear_1_4109" x1="5805.19" y1="954.542" x2="-732.331" y2="1643.88" gradientUnits="userSpaceOnUse">
<stop stop-color="#A1BAFF"/>
<stop offset="0.4332" stop-color="white"/>
</linearGradient>
<linearGradient id="paint53_linear_1_4109" x1="268.097" y1="9135.83" x2="17971.5" y2="9135.83" gradientUnits="userSpaceOnUse">
<stop stop-color="#270036"/>
<stop offset="0.5936" stop-color="#4F008B"/>
<stop offset="1" stop-color="#4C24B1"/>
</linearGradient>
<linearGradient id="paint54_linear_1_4109" x1="-688.77" y1="9003.27" x2="5789.05" y2="2536.6" gradientUnits="userSpaceOnUse">
<stop stop-color="#7633FF"/>
<stop offset="0.1585" stop-color="#7137FF"/>
<stop offset="0.3535" stop-color="#6243FF"/>
<stop offset="0.5676" stop-color="#4957FF"/>
<stop offset="0.7937" stop-color="#2672FF"/>
<stop offset="1" stop-color="#0090FF"/>
</linearGradient>
<linearGradient id="paint55_linear_1_4109" x1="231.414" y1="2625.57" x2="11775.6" y2="2625.57" gradientUnits="userSpaceOnUse">
<stop stop-color="#A1BAFF"/>
<stop offset="0.0888" stop-color="#ACC2FF"/>
<stop offset="0.4988" stop-color="#D9E3FF"/>
<stop offset="0.816" stop-color="#F5F7FF"/>
<stop offset="1" stop-color="white"/>
</linearGradient>
<clipPath id="clip0_1_4109">
<rect width="727" height="479" fill="white" transform="translate(55)"/>
</clipPath>
</defs>
</svg>
