<svg width="698" height="524" viewBox="0 0 698 524" fill="none" xmlns="http://www.w3.org/2000/svg">
<path d="M645.1 311.99C504.82 434.134 605.707 528.961 271.758 504.088C115.414 492.429 37.9799 373.481 20.0501 264.795C-2.18124 130.048 82.8788 34.3919 317.049 34.3919C422.683 34.3919 517.986 2.489 584.523 45.4395C677.269 105.333 714.115 251.904 645.1 311.99Z" fill="url(#paint0_linear_1_4476)"/>
<path d="M222.828 62.6267H583.423V423.567H222.828V62.6267Z" fill="url(#paint1_radial_1_4476)"/>
<path d="M603.779 159.113C606.53 159.113 608.761 156.88 608.761 154.126C608.761 151.372 606.53 149.139 603.779 149.139C601.027 149.139 598.797 151.372 598.797 154.126C598.797 156.88 601.027 159.113 603.779 159.113Z" fill="#B3EFFF"/>
<path d="M156.518 123.219C159.269 123.219 161.5 120.986 161.5 118.232C161.5 115.478 159.269 113.245 156.518 113.245C153.766 113.245 151.536 115.478 151.536 118.232C151.536 120.986 153.766 123.219 156.518 123.219Z" fill="#B3EFFF"/>
<path d="M478.828 116.066C495.859 133.192 523.517 133.262 540.627 116.223C557.737 99.1845 557.807 71.4911 540.784 54.365C523.762 37.2389 496.095 37.1691 478.985 54.2078C461.884 71.2465 461.814 98.9399 478.828 116.066Z" fill="url(#paint2_linear_1_4476)"/>
<path d="M233.219 79.3423C239.271 79.3423 244.178 74.4313 244.178 68.3733C244.178 62.3152 239.271 57.4042 233.219 57.4042C227.167 57.4042 222.261 62.3152 222.261 68.3733C222.261 74.4313 227.167 79.3423 233.219 79.3423Z" fill="url(#paint3_linear_1_4476)"/>
<path opacity="0.6" d="M57.2883 187.182C61.8275 187.182 65.5073 183.498 65.5073 178.955C65.5073 174.411 61.8275 170.728 57.2883 170.728C52.7491 170.728 49.0694 174.411 49.0694 178.955C49.0694 183.498 52.7491 187.182 57.2883 187.182Z" fill="url(#paint4_linear_1_4476)"/>
<path d="M375.664 79.3423C378.415 79.3423 380.646 77.1097 380.646 74.3556C380.646 71.6015 378.415 69.3689 375.664 69.3689C372.912 69.3689 370.682 71.6015 370.682 74.3556C370.682 77.1097 372.912 79.3423 375.664 79.3423Z" fill="#125CAE"/>
<path d="M301.955 71.5697L303.002 73.7006L305.349 74.0412L303.647 75.6918L304.049 78.0323L301.955 76.9319L299.861 78.0323L300.253 75.6918L298.561 74.0412L300.908 73.7006L301.955 71.5697Z" fill="white"/>
<path opacity="0.4" d="M90.1642 125.725L91.2112 127.856L93.5582 128.197L91.8568 129.856L92.2582 132.188L90.1642 131.087L88.0614 132.188L88.4628 129.856L86.7701 128.197L89.1172 127.856L90.1642 125.725Z" fill="white"/>
<path d="M52.8037 252.865L53.8507 254.996L56.1977 255.336L54.5051 256.996L54.8977 259.328L52.8037 258.227L50.7097 259.328L51.111 256.996L49.4097 255.336L51.7567 254.996L52.8037 252.865ZM649.934 209.879L650.981 212.01L653.328 212.351L651.635 214.01L652.028 216.342L649.934 215.242L647.84 216.342L648.241 214.01L646.54 212.351L648.887 212.01L649.934 209.879ZM617.023 96.154L618.07 98.2849L620.417 98.6255L618.725 100.285L619.126 102.617L617.023 101.516L614.929 102.617L615.331 100.285L613.629 98.6255L615.976 98.2849L617.023 96.154Z" fill="white"/>
<path d="M272.604 320.487L555.015 178.186L305.043 386.572" fill="url(#paint5_linear_1_4476)"/>
<path d="M426.033 262.393L555.015 178.186L399.465 256.874L426.033 262.393Z" fill="url(#paint6_linear_1_4476)"/>
<path d="M160.017 471.53C146.894 481.294 115.842 490.246 115.842 490.246C115.842 490.246 118.328 488.822 122.412 486.805C126.495 484.779 129.88 480.499 129.88 480.499C129.88 480.499 121.539 485.591 109.944 489.512C98.3569 493.433 82.8526 496.28 82.8526 496.28C82.8526 496.28 86.0023 494.752 91.5253 491.136C97.0569 487.521 106.558 481.224 106.558 481.224C106.558 481.224 82.8439 494.228 46.5915 496.726C32.4047 497.704 9.2049 502.787 9.2049 502.787C9.2049 502.787 20.4165 493.11 25.7475 487.53C34.2195 478.674 44.07 464.43 51.7916 455.435C63.2912 442.038 86.901 418.475 86.901 418.475L82.1546 420.606C77.4082 422.737 71.6672 425.025 71.6672 425.025C71.6672 425.025 95.4079 402.371 113.076 395.541C132.986 387.847 159.554 391.358 159.554 391.358C159.554 391.358 161.892 402.729 170.582 417.453C179.569 432.667 186.959 438.867 186.959 438.867C186.959 438.867 180.119 456.579 160.017 471.53Z" fill="url(#paint7_linear_1_4476)"/>
<path d="M163.184 458.378C153.324 465.714 129.985 472.447 129.985 472.447C129.985 472.447 131.852 471.382 134.923 469.862C137.995 468.342 140.534 465.12 140.534 465.12C140.534 465.12 134.26 468.945 125.553 471.888C116.845 474.831 105.197 476.98 105.197 476.98C105.197 476.98 107.562 475.827 111.715 473.111C115.868 470.395 123.014 465.661 123.014 465.661C123.014 465.661 105.189 475.434 77.9404 477.312C67.2785 478.045 49.8459 481.862 49.8459 481.862C49.8459 481.862 58.2743 474.587 62.2791 470.395C68.6483 463.74 76.0471 453.042 81.858 446.273C90.5044 436.204 108.242 418.501 108.242 418.501L104.674 420.1C101.105 421.698 96.7864 423.418 96.7864 423.418C96.7864 423.418 114.629 406.397 127.909 401.262C142.872 395.48 162.843 398.118 162.843 398.118C162.843 398.118 164.597 406.668 171.132 417.724C177.885 429.165 183.443 433.811 183.443 433.811C183.443 433.811 178.287 447.138 163.184 458.378Z" fill="url(#paint8_linear_1_4476)"/>
<path d="M178.121 365.752C179.622 363.49 221.484 318.583 272.368 292.235C323.253 265.886 346.313 263.633 346.313 263.633C346.313 263.633 359.095 272.663 371.877 296.252C384.659 319.841 388.42 329.369 387.416 332.382C386.413 335.395 336.785 389.087 282.385 411.419C227.993 433.75 221.728 435.007 221.728 435.007C221.728 435.007 214.958 434.256 207.193 422.466C199.427 410.676 181.375 381.315 179.369 374.791C177.362 368.267 178.121 365.752 178.121 365.752Z" fill="url(#paint9_linear_1_4476)"/>
<path d="M428.528 260.873C425.518 256.612 421.513 255.852 397.197 256.105C372.88 256.358 347.569 264.384 347.569 264.384L347.857 264.856C351.626 268.009 361.747 277.554 371.886 296.252C381.509 314.007 386.011 323.797 387.233 328.836L388.184 330.373L392.442 326.356C396.7 322.339 414.246 296.497 420.763 284.453C427.281 272.419 431.538 265.135 428.528 260.873Z" fill="url(#paint10_linear_1_4476)"/>
<path d="M223.744 434.248L195.92 492.962C195.92 492.962 223.238 481.67 255.075 460.596C286.913 439.522 289.417 436.256 289.417 436.256L297.941 404.144C297.933 404.144 246.804 427.724 223.744 434.248Z" fill="url(#paint11_linear_1_4476)"/>
<path d="M240.531 311.806L211.206 305.789C211.206 305.789 185.389 316.575 163.829 330.627C142.27 344.678 121.216 360.486 121.216 360.486L180.119 363.499C180.128 363.49 221.737 320.836 240.531 311.806Z" fill="url(#paint12_linear_1_4476)"/>
<path d="M207.193 422.458C199.419 410.668 181.375 381.306 179.369 374.782C178.819 373.009 178.487 371.542 178.278 370.328L163.079 381.551C163.079 381.551 162.076 392.59 175.608 413.165C189.141 433.741 196.164 440.763 199.419 440.509C202.673 440.256 216.712 432.981 216.712 432.981L216.424 432.51C213.885 430.737 210.639 427.68 207.193 422.458Z" fill="url(#paint13_linear_1_4476)"/>
<path d="M164.082 388.083L159.572 391.341C159.572 391.341 159.074 398.362 169.344 415.427C179.622 432.492 185.886 438.763 188.643 439.016C191.4 439.269 193.407 436.754 193.407 436.754C193.407 436.754 169.344 409.908 164.082 388.083Z" fill="url(#paint14_linear_1_4476)"/>
<path d="M258.836 350.949L236.273 358.73C236.273 358.73 201.294 378.153 189.9 385.079C175.608 393.76 133.754 421.462 133.754 421.462L135.508 425.226L239.283 363.254L262.09 354.469L258.836 350.949Z" fill="url(#paint15_linear_1_4476)"/>
<path d="M135.508 425.217L192.657 398.869C192.657 398.869 214.609 386.31 221.737 381.804C232.041 375.298 262.09 354.46 262.09 354.46L238.28 363.49L135.508 425.217Z" fill="url(#paint16_linear_1_4476)"/>
<path d="M361.608 138.432L367.122 136.17C367.122 136.17 368.509 136.808 369.879 139.934C371.633 143.952 371.886 146.711 371.886 146.711L366.371 149.724C366.363 149.724 363.606 142.196 361.608 138.432Z" fill="black"/>
<path d="M310.968 188.116L367.366 153.995C367.366 153.995 368.038 148.641 366.031 143.96C364.024 139.279 361.686 137.934 361.686 137.934L289.164 170.807" fill="url(#paint17_linear_1_4476)"/>
<path d="M285.482 170.632C285.482 170.632 274.619 182.588 272.115 195.635C269.611 208.683 269.856 230.508 269.105 237.791C268.355 245.066 264.594 258.62 262.335 264.891C260.075 271.161 259.324 279.947 259.324 279.947C259.324 279.947 275.117 281.702 292.663 279.694C310.209 277.685 316.473 275.432 316.473 275.432C316.473 275.432 315.47 254.856 313.629 248.166C311.788 241.477 311.291 239.136 311.291 239.136C311.291 239.136 311.962 236.63 313.629 232.115C315.304 227.599 323.654 211.539 322.319 205.356C320.984 199.164 317.642 190.133 314.798 187.12C311.954 184.107 310.785 183.61 310.785 183.61C310.785 183.61 304.267 174.239 299.756 169.89C295.245 165.54 289.731 166.038 289.731 166.038L285.482 170.632Z" fill="url(#paint18_linear_1_4476)"/>
<path opacity="0.5" d="M289.67 210.543C289.67 210.543 292.593 219.076 297.444 224.761C302.286 230.446 312.233 236.307 312.233 236.307L313.646 232.115L290.342 210.552" fill="url(#paint19_linear_1_4476)"/>
<path d="M308.455 180.335C306.152 177.208 302.574 172.579 299.774 169.881C295.263 165.532 289.749 166.029 289.749 166.029L285.543 170.571C288.562 172.422 296.013 173.793 300.777 176.571C303.674 178.256 306.317 179.479 308.455 180.335Z" fill="url(#paint20_linear_1_4476)"/>
<path d="M288.414 246.158C288.414 246.158 293.762 245.992 301.449 244.149C309.135 242.306 310.47 241.136 310.47 241.136L308.795 247.992C308.795 247.992 304.947 250.664 299.433 251.171C293.919 251.668 287.899 251.843 287.899 251.843L288.414 246.158Z" fill="url(#paint21_linear_1_4476)"/>
<path d="M264.35 280.279C264.35 280.279 265.851 288.305 271.033 291.318C276.216 294.331 281.224 296.671 281.224 296.671L304.956 314.741L267.36 329.963C267.36 329.963 272.203 341.334 276.216 347.028C280.23 352.713 283.065 355.394 283.065 354.888C283.065 354.381 306.797 343.342 319.492 338.495C332.196 333.648 338.539 330.801 340.886 325.954C343.224 321.107 338.216 315.588 335.869 311.239C333.531 306.889 317.651 284.48 314.815 281.301C311.98 278.122 309.633 277.117 309.633 277.117C309.633 277.117 283.563 282.122 264.35 280.279Z" fill="black"/>
<path d="M267.351 329.954L257.161 329.788L245.295 335.142L250.312 346.853L252.65 345.351C252.65 345.351 253.819 356.556 257.161 364.084C260.502 371.612 267.858 377.97 269.524 377.804C271.199 377.638 272.534 374.957 272.534 374.957C272.534 374.957 266.688 365.088 267.858 359.569C269.027 354.049 271.531 345.185 271.531 345.185L273.372 343.176C273.372 343.168 267.692 332.801 267.351 329.954Z" fill="url(#paint22_linear_1_4476)"/>
<path d="M267.351 329.954L259.656 329.832C260.04 331.727 260.738 334.661 261.506 335.648C262.553 337.002 268.713 339.159 271.897 344.783L273.372 343.176C273.372 343.168 267.692 332.801 267.351 329.954Z" fill="white"/>
<path d="M269.524 377.795C269.978 377.752 270.405 377.516 270.789 377.21C267.587 375.105 264.219 371.175 261 366.922C256.323 360.73 255.983 348.023 255.32 345.342C254.761 343.115 251.315 335.447 250.172 332.932L245.295 335.133L250.312 346.844L252.65 345.342C252.65 345.342 253.819 356.547 257.161 364.075C260.502 371.603 267.858 377.961 269.524 377.795ZM296.807 166.536C296.807 166.536 296.31 162.274 296.057 160.51C295.804 158.755 296.807 149.724 301.693 146.082C306.579 142.441 315.103 142.065 320.242 144.58C325.381 147.087 330.014 149.978 331.018 151.733C332.021 153.488 332.518 156.755 332.143 157.759C331.768 158.763 331.14 158.763 331.14 158.763L325.879 154.37C325.879 154.37 321.996 158.388 321.865 159.392C321.743 160.396 320.487 166.038 320.487 166.038C320.487 166.038 318.105 165.916 318.105 165.54C318.105 165.165 315.723 158.519 313.969 158.763C312.215 159.017 309.877 158.51 308.83 162.527C308.533 163.68 307.949 166.545 307.949 166.545L300.175 169.68L296.807 166.536Z" fill="black"/>
<path d="M325.887 154.37C325.887 154.37 322.005 158.388 321.874 159.392C321.752 160.396 320.495 166.038 320.495 166.038C320.495 166.038 318.114 165.916 318.114 165.54C318.114 165.165 315.732 158.519 313.978 158.763C312.224 159.017 309.886 158.51 308.839 162.527C308.542 163.68 307.958 166.545 307.958 166.545L300.184 169.68L310.462 183.522L312.468 182.684C312.468 182.684 320.652 185.444 321.412 185.356C322.162 185.269 323 181.758 323 181.426C323 181.094 324.422 180.754 325.006 180.588C325.591 180.422 324.84 179.164 324.84 179.164L326.263 178.911L326.76 175.898C326.76 175.898 327.842 176.396 328.182 176.396C328.514 176.396 329.857 175.811 329.857 175.811L328.522 166.274L330.023 164.85L330.608 158.493L330.459 158.161L325.887 154.37Z" fill="url(#paint23_linear_1_4476)"/>
<path d="M289.749 209.687C289.749 209.687 291.921 217.713 311.474 230.927C331.026 244.14 344.062 252 348.572 254.516C353.083 257.022 359.932 263.214 359.932 263.214C359.932 263.214 363.78 258.865 365.944 254.847C368.116 250.83 368.614 248.821 368.614 248.821C368.614 248.821 344.55 232.263 337.361 226.578C330.171 220.892 320.487 209.347 319.483 207.006C318.48 204.666 318.314 189.112 311.125 185.094C303.935 181.077 295.917 185.094 292.41 193.627C288.902 202.159 289.749 209.687 289.749 209.687Z" fill="url(#paint24_linear_1_4476)"/>
<path d="M362.227 260L368.247 262.507C368.247 262.507 370.629 260.376 371.886 256.734C373.142 253.092 373.639 251.468 373.639 251.468L368.623 248.83C368.623 248.83 364.487 258.114 362.227 260Z" fill="black"/>
<path d="M373.639 252.472C373.639 252.472 382.164 251.468 384.293 251.468C386.422 251.468 390.557 252.725 394.196 254.35C397.834 255.974 400.591 258.489 400.591 259.118C400.591 259.747 399.963 260.751 397.956 260.376C395.949 260 387.8 258.245 386.422 258.367C385.043 258.489 378.403 262.009 376.266 262.009C374.128 262.009 370.245 260.507 370.245 260.507C370.245 260.507 373.639 254.35 373.639 252.472Z" fill="url(#paint25_linear_1_4476)"/>
<path d="M367.122 136.179C367.122 136.179 371.135 134.258 373.308 133.087C375.48 131.917 380.323 129.411 384.005 127.9C387.678 126.398 392.529 123.716 393.026 125.053C393.524 126.389 383.499 132.249 383.499 132.249C383.499 132.249 386.84 136.266 386.84 136.93C386.84 137.602 383.333 143.454 383.333 143.454C383.333 143.454 380.585 144.449 379.66 144.292C378.735 144.135 376.484 142.283 376.484 142.283L371.467 143.786C371.467 143.786 368.788 137.594 367.122 136.179Z" fill="url(#paint26_linear_1_4476)"/>
<path d="M204.741 108.66C205.695 108.66 206.468 107.886 206.468 106.931C206.468 105.976 205.695 105.202 204.741 105.202C203.787 105.202 203.013 105.976 203.013 106.931C203.013 107.886 203.787 108.66 204.741 108.66Z" fill="white"/>
<path d="M267.43 158.789C267.43 159.261 267.046 159.645 266.575 159.645C266.104 159.645 265.72 159.261 265.72 158.789C265.72 158.318 266.104 157.934 266.575 157.934C267.046 157.934 267.43 158.318 267.43 158.789ZM165.897 173.392C165.903 173.702 165.847 174.01 165.733 174.298C165.619 174.586 165.448 174.848 165.231 175.07C165.015 175.291 164.756 175.467 164.47 175.587C164.185 175.707 163.878 175.769 163.568 175.769C163.259 175.769 162.952 175.707 162.667 175.587C162.381 175.467 162.122 175.292 161.905 175.07C161.688 174.849 161.518 174.587 161.403 174.299C161.289 174.01 161.233 173.702 161.239 173.392C161.251 172.782 161.501 172.2 161.936 171.773C162.372 171.345 162.958 171.105 163.568 171.105C164.178 171.105 164.763 171.345 165.199 171.772C165.635 172.2 165.885 172.781 165.897 173.392ZM103.243 162.536C103.243 163.012 103.054 163.469 102.718 163.805C102.382 164.142 101.925 164.331 101.45 164.331C100.974 164.331 100.518 164.142 100.182 163.805C99.8459 163.469 99.657 163.012 99.657 162.536C99.657 161.54 100.46 160.737 101.454 160.737C102.44 160.746 103.243 161.549 103.243 162.536ZM259.865 111.507C259.865 112.407 259.133 113.14 258.234 113.14C257.335 113.14 256.602 112.407 256.602 111.507C256.602 110.608 257.335 109.874 258.234 109.874C259.141 109.874 259.865 110.608 259.865 111.507Z" fill="white"/>
<path d="M570.598 95.6824C571.778 95.6824 572.735 94.7244 572.735 93.5427C572.735 92.361 571.778 91.4031 570.598 91.4031C569.417 91.4031 568.46 92.361 568.46 93.5427C568.46 94.7244 569.417 95.6824 570.598 95.6824Z" fill="white"/>
<path d="M648.25 157.785C648.25 158.37 647.779 158.842 647.194 158.842C646.61 158.842 646.139 158.37 646.139 157.785C646.139 157.2 646.61 156.728 647.194 156.728C647.779 156.728 648.25 157.2 648.25 157.785ZM522.47 175.872C522.47 177.47 521.179 178.763 519.582 178.763C517.986 178.763 516.694 177.47 516.694 175.872C516.694 174.274 517.986 172.981 519.582 172.981C521.179 172.981 522.47 174.274 522.47 175.872ZM444.862 162.423C444.862 163.654 443.867 164.65 442.637 164.65C441.406 164.65 440.412 163.654 440.412 162.423C440.412 161.191 441.406 160.196 442.637 160.196C443.226 160.198 443.791 160.433 444.207 160.85C444.624 161.268 444.859 161.833 444.862 162.423ZM638.888 99.2107C638.888 100.329 637.981 101.237 636.864 101.237C635.747 101.237 634.84 100.329 634.84 99.2107C634.84 98.0928 635.747 97.1845 636.864 97.1845C637.981 97.1845 638.888 98.0928 638.888 99.2107Z" fill="white"/>
<path d="M477.196 353.097C478.377 353.097 479.334 352.139 479.334 350.958C479.334 349.776 478.377 348.818 477.196 348.818C476.016 348.818 475.059 349.776 475.059 350.958C475.059 352.139 476.016 353.097 477.196 353.097Z" fill="white"/>
<path d="M554.858 415.2C554.858 415.785 554.386 416.257 553.802 416.257C553.217 416.257 552.746 415.785 552.746 415.2C552.746 414.615 553.217 414.143 553.802 414.143C554.386 414.135 554.858 414.615 554.858 415.2ZM429.078 433.287C429.078 434.885 427.787 436.178 426.19 436.178C424.593 436.178 423.302 434.885 423.302 433.287C423.302 431.689 424.593 430.396 426.19 430.396C427.787 430.396 429.078 431.689 429.078 433.287ZM351.469 419.838C351.469 421.069 350.475 422.064 349.244 422.064C348.014 422.064 347.019 421.069 347.019 419.838C347.019 418.606 348.014 417.61 349.244 417.61C350.475 417.61 351.469 418.606 351.469 419.838ZM545.496 356.626C545.496 357.743 544.588 358.652 543.472 358.652C542.355 358.652 541.447 357.743 541.447 356.626C541.447 355.508 542.355 354.599 543.472 354.599C544.588 354.599 545.496 355.508 545.496 356.626Z" fill="white"/>
<path d="M389.946 451.181C390.587 451.181 391.107 450.661 391.107 450.02C391.107 449.378 390.587 448.858 389.946 448.858C389.306 448.858 388.786 449.378 388.786 450.02C388.786 450.661 389.306 451.181 389.946 451.181Z" fill="white"/>
<path d="M432.167 484.953C432.167 485.106 432.106 485.253 431.998 485.361C431.89 485.469 431.744 485.53 431.591 485.53C431.438 485.53 431.292 485.469 431.184 485.361C431.076 485.253 431.015 485.106 431.015 484.953C431.015 484.63 431.268 484.377 431.591 484.377C431.914 484.377 432.167 484.63 432.167 484.953ZM363.78 494.787C363.78 495.204 363.615 495.604 363.32 495.899C363.026 496.193 362.626 496.359 362.21 496.359C361.793 496.359 361.394 496.193 361.099 495.899C360.805 495.604 360.639 495.204 360.639 494.787C360.639 493.914 361.346 493.215 362.21 493.215C363.073 493.215 363.78 493.914 363.78 494.787ZM321.577 487.468C321.577 488.132 321.036 488.674 320.373 488.674C319.71 488.674 319.169 488.132 319.169 487.468C319.169 486.805 319.71 486.263 320.373 486.263C321.036 486.263 321.577 486.805 321.577 487.468ZM427.08 453.103C427.08 453.714 426.591 454.203 425.981 454.203C425.37 454.203 424.881 453.714 424.881 453.103C424.881 452.492 425.37 452.002 425.981 452.002C426.583 452.002 427.08 452.492 427.08 453.103Z" fill="white"/>
<path d="M142.505 260.052C143.146 260.052 143.666 259.532 143.666 258.891C143.666 258.249 143.146 257.729 142.505 257.729C141.865 257.729 141.345 258.249 141.345 258.891C141.345 259.532 141.865 260.052 142.505 260.052Z" fill="white"/>
<path d="M184.734 293.824C184.737 293.902 184.725 293.979 184.697 294.052C184.67 294.124 184.628 294.19 184.574 294.246C184.521 294.302 184.456 294.347 184.385 294.377C184.314 294.408 184.237 294.424 184.159 294.424C184.082 294.424 184.005 294.408 183.934 294.378C183.863 294.347 183.798 294.303 183.744 294.247C183.691 294.191 183.649 294.125 183.621 294.053C183.593 293.98 183.581 293.903 183.584 293.825C183.589 293.676 183.652 293.535 183.76 293.432C183.867 293.329 184.01 293.271 184.159 293.271C184.307 293.271 184.451 293.328 184.558 293.431C184.665 293.535 184.729 293.675 184.734 293.824ZM116.339 303.658C116.339 304.075 116.174 304.475 115.879 304.77C115.585 305.064 115.185 305.23 114.769 305.23C114.352 305.23 113.953 305.064 113.658 304.77C113.364 304.475 113.198 304.075 113.198 303.658C113.198 303.241 113.364 302.841 113.658 302.546C113.953 302.252 114.352 302.086 114.769 302.086C115.185 302.086 115.585 302.252 115.879 302.546C116.174 302.841 116.339 303.241 116.339 303.658ZM74.145 296.348C74.145 297.012 73.6041 297.553 72.941 297.553C72.2779 297.553 71.7369 297.012 71.7369 296.348C71.7369 295.684 72.2779 295.143 72.941 295.143C73.6041 295.143 74.145 295.676 74.145 296.348ZM179.639 261.974C179.639 262.585 179.15 263.074 178.54 263.074C177.929 263.074 177.44 262.585 177.44 261.974C177.44 261.362 177.929 260.873 178.54 260.873C179.15 260.873 179.639 261.371 179.639 261.974Z" fill="white"/>
<path d="M581.835 233.355C582.476 233.355 582.996 232.835 582.996 232.193C582.996 231.552 582.476 231.032 581.835 231.032C581.194 231.032 580.675 231.552 580.675 232.193C580.675 232.835 581.194 233.355 581.835 233.355Z" fill="white"/>
<path d="M624.064 267.126C624.064 267.441 623.811 267.703 623.488 267.703C623.166 267.703 622.913 267.45 622.913 267.126C622.913 266.812 623.166 266.55 623.488 266.55C623.811 266.55 624.064 266.803 624.064 267.126ZM555.669 276.96C555.669 277.377 555.504 277.777 555.209 278.072C554.915 278.367 554.515 278.532 554.099 278.532C553.682 278.532 553.283 278.367 552.988 278.072C552.694 277.777 552.528 277.377 552.528 276.96C552.528 276.543 552.694 276.143 552.988 275.849C553.283 275.554 553.682 275.388 554.099 275.388C554.515 275.388 554.915 275.554 555.209 275.849C555.504 276.143 555.669 276.543 555.669 276.96ZM513.475 269.65C513.475 270.314 512.934 270.856 512.271 270.856C511.608 270.856 511.067 270.314 511.067 269.65C511.067 268.987 511.608 268.445 512.271 268.445C512.934 268.436 513.475 268.978 513.475 269.65ZM618.969 235.276C618.969 235.887 618.48 236.376 617.87 236.376C617.259 236.376 616.77 235.887 616.77 235.276C616.77 234.665 617.259 234.176 617.87 234.176C618.48 234.176 618.969 234.673 618.969 235.276Z" fill="white"/>
<path d="M454.695 156.335C455.336 156.335 455.855 155.815 455.855 155.174C455.855 154.532 455.336 154.012 454.695 154.012C454.054 154.012 453.534 154.532 453.534 155.174C453.534 155.815 454.054 156.335 454.695 156.335Z" fill="white"/>
<path d="M496.924 190.107C496.924 190.422 496.671 190.684 496.348 190.684C496.025 190.684 495.772 190.43 495.772 190.107C495.772 189.793 496.025 189.531 496.348 189.531C496.671 189.531 496.924 189.784 496.924 190.107ZM428.528 199.941C428.528 200.358 428.363 200.758 428.068 201.052C427.774 201.347 427.374 201.513 426.958 201.513C426.541 201.513 426.142 201.347 425.847 201.052C425.553 200.758 425.387 200.358 425.387 199.941C425.387 199.524 425.553 199.124 425.847 198.829C426.142 198.535 426.541 198.369 426.958 198.369C427.374 198.369 427.774 198.535 428.068 198.829C428.363 199.124 428.528 199.524 428.528 199.941ZM386.334 192.631C386.334 193.295 385.793 193.836 385.13 193.836C384.467 193.836 383.926 193.295 383.926 192.631C383.926 191.967 384.467 191.426 385.13 191.426C385.793 191.417 386.334 191.959 386.334 192.631ZM491.828 158.257C491.828 158.868 491.34 159.357 490.729 159.357C490.118 159.357 489.63 158.868 489.63 158.257C489.63 157.645 490.118 157.156 490.729 157.156C491.34 157.156 491.828 157.645 491.828 158.257Z" fill="white"/>
<path opacity="0.6" d="M560.005 65.3777C563.347 65.3777 566.471 66.2947 569.149 67.8929C569.786 58.5657 577.543 51.2035 587.018 51.2035C589.33 51.2035 591.538 51.6489 593.562 52.4437C596.144 43.7977 604.145 37.4922 613.62 37.4922C625.19 37.4922 634.561 46.8805 634.561 58.4522C634.561 58.7491 634.552 59.0461 634.534 59.3343H634.561C646.121 59.3343 655.501 68.7226 655.501 80.2943C655.501 91.8747 646.121 101.254 634.561 101.254C633.836 101.254 633.121 101.219 632.423 101.149H561.951C561.305 101.219 560.66 101.254 559.997 101.254C550.103 101.254 542.076 93.2196 542.076 83.316C542.084 73.4124 550.111 65.3777 560.005 65.3777Z" fill="url(#paint27_linear_1_4476)"/>
<path opacity="0.3" d="M470.914 89.1237C469.004 89.1237 467.206 89.6477 465.679 90.5647C465.313 85.2199 460.872 81.0017 455.445 81.0017C454.276 81.0017 453.15 81.2113 452.103 81.5781C450.594 76.6874 446.031 73.1242 440.647 73.1242C440.246 73.1242 439.845 73.1504 439.452 73.1853C434.418 73.4997 430.23 76.9145 428.773 81.5519C427.717 81.1851 426.591 80.9755 425.414 80.9755C419.987 80.9755 415.546 85.1937 415.179 90.5385C413.597 89.5926 411.787 89.0945 409.944 89.0975C404.273 89.0975 399.684 93.6999 399.684 99.3679C399.684 105.045 404.282 109.638 409.944 109.638C410.319 109.638 410.694 109.612 411.061 109.577H426.818C427.281 109.63 427.743 109.664 428.223 109.664C428.633 109.664 429.043 109.647 429.445 109.603H451.946C452.173 109.612 452.4 109.638 452.636 109.638C452.871 109.638 453.098 109.612 453.325 109.603H469.798C470.164 109.647 470.539 109.664 470.914 109.664C476.586 109.664 481.175 105.062 481.175 99.3941C481.175 93.7261 476.577 89.1237 470.914 89.1237Z" fill="url(#paint28_linear_1_4476)"/>
<defs>
<linearGradient id="paint0_linear_1_4476" x1="203.161" y1="27.1528" x2="507.914" y2="463.991" gradientUnits="userSpaceOnUse">
<stop stop-color="#270036"/>
<stop offset="0.594" stop-color="#4F008B"/>
<stop offset="1" stop-color="#4C24B1"/>
</linearGradient>
<radialGradient id="paint1_radial_1_4476" cx="0" cy="0" r="1" gradientUnits="userSpaceOnUse" gradientTransform="translate(403.131 243.101) scale(180.299 180.471)">
<stop stop-color="#3E82BF"/>
<stop offset="1" stop-color="#3E82BF" stop-opacity="0"/>
</radialGradient>
<linearGradient id="paint2_linear_1_4476" x1="518.058" y1="44.1879" x2="500.794" y2="129.951" gradientUnits="userSpaceOnUse">
<stop stop-color="#88CFDA"/>
<stop offset="0.008" stop-color="#89CFD9"/>
<stop offset="0.478" stop-color="#C8D9BB"/>
<stop offset="0.822" stop-color="#F0DFA7"/>
<stop offset="1" stop-color="#FFE1A0"/>
</linearGradient>
<linearGradient id="paint3_linear_1_4476" x1="222.265" y1="68.375" x2="244.18" y2="68.375" gradientUnits="userSpaceOnUse">
<stop stop-color="#7633FF"/>
<stop offset="0.159" stop-color="#7137FF"/>
<stop offset="0.353" stop-color="#6243FF"/>
<stop offset="0.568" stop-color="#4957FF"/>
<stop offset="0.794" stop-color="#2672FF"/>
<stop offset="1" stop-color="#0090FF"/>
</linearGradient>
<linearGradient id="paint4_linear_1_4476" x1="49.0685" y1="178.951" x2="65.5047" y2="178.951" gradientUnits="userSpaceOnUse">
<stop stop-color="#7633FF"/>
<stop offset="0.159" stop-color="#7137FF"/>
<stop offset="0.353" stop-color="#6243FF"/>
<stop offset="0.568" stop-color="#4957FF"/>
<stop offset="0.794" stop-color="#2672FF"/>
<stop offset="1" stop-color="#0090FF"/>
</linearGradient>
<linearGradient id="paint5_linear_1_4476" x1="600.995" y1="164.63" x2="269.919" y2="364.59" gradientUnits="userSpaceOnUse">
<stop stop-color="#1DACFF"/>
<stop offset="0.136" stop-color="#1CA9FB"/>
<stop offset="0.274" stop-color="#1B9FEF"/>
<stop offset="0.414" stop-color="#188EDA"/>
<stop offset="0.555" stop-color="#1476BD"/>
<stop offset="0.696" stop-color="#0F5898"/>
<stop offset="0.839" stop-color="#08326B"/>
<stop offset="0.979" stop-color="#010737"/>
<stop offset="1" stop-color="#00002E"/>
</linearGradient>
<linearGradient id="paint6_linear_1_4476" x1="566.031" y1="167.089" x2="376.416" y2="281.352" gradientUnits="userSpaceOnUse">
<stop stop-color="#1DACFF"/>
<stop offset="0.136" stop-color="#1CA9FB"/>
<stop offset="0.274" stop-color="#1B9FEF"/>
<stop offset="0.414" stop-color="#188EDA"/>
<stop offset="0.555" stop-color="#1476BD"/>
<stop offset="0.696" stop-color="#0F5898"/>
<stop offset="0.839" stop-color="#08326B"/>
<stop offset="0.979" stop-color="#010737"/>
<stop offset="1" stop-color="#00002E"/>
</linearGradient>
<linearGradient id="paint7_linear_1_4476" x1="9.21886" y1="446.658" x2="186.972" y2="446.658" gradientUnits="userSpaceOnUse">
<stop stop-color="#88AEDA"/>
<stop offset="0.042" stop-color="#8EADD4"/>
<stop offset="0.496" stop-color="#CBA895"/>
<stop offset="0.828" stop-color="#F1A56D"/>
<stop offset="1" stop-color="#FFA45E"/>
</linearGradient>
<linearGradient id="paint8_linear_1_4476" x1="49.8494" y1="439.681" x2="183.436" y2="439.681" gradientUnits="userSpaceOnUse">
<stop stop-color="#88CFDA"/>
<stop offset="0.042" stop-color="#8ED0D4"/>
<stop offset="0.496" stop-color="#CBD995"/>
<stop offset="0.828" stop-color="#F1DF6D"/>
<stop offset="1" stop-color="#FFE15E"/>
</linearGradient>
<linearGradient id="paint9_linear_1_4476" x1="318.922" y1="396.33" x2="158.817" y2="187.97" gradientUnits="userSpaceOnUse">
<stop stop-color="#A1BAFF"/>
<stop offset="0.488" stop-color="white"/>
</linearGradient>
<linearGradient id="paint10_linear_1_4476" x1="416.738" y1="309.474" x2="385.856" y2="259.135" gradientUnits="userSpaceOnUse">
<stop stop-color="#3D00BA"/>
<stop offset="0.745" stop-color="#CE00FF"/>
</linearGradient>
<linearGradient id="paint11_linear_1_4476" x1="195.916" y1="448.549" x2="297.936" y2="448.549" gradientUnits="userSpaceOnUse">
<stop stop-color="#3D00BA"/>
<stop offset="0.745" stop-color="#CE00FF"/>
</linearGradient>
<linearGradient id="paint12_linear_1_4476" x1="219.114" y1="351.204" x2="157.937" y2="327.156" gradientUnits="userSpaceOnUse">
<stop stop-color="#3D00BA"/>
<stop offset="0.745" stop-color="#CE00FF"/>
</linearGradient>
<linearGradient id="paint13_linear_1_4476" x1="209.396" y1="441.051" x2="167.23" y2="377.111" gradientUnits="userSpaceOnUse">
<stop stop-color="#270036"/>
<stop offset="0.438" stop-color="#4F008B"/>
<stop offset="1" stop-color="#4C24B1"/>
</linearGradient>
<linearGradient id="paint14_linear_1_4476" x1="159.936" y1="388.575" x2="190.058" y2="441.236" gradientUnits="userSpaceOnUse">
<stop stop-color="#7633FF"/>
<stop offset="0.159" stop-color="#7137FF"/>
<stop offset="0.353" stop-color="#6243FF"/>
<stop offset="0.568" stop-color="#4957FF"/>
<stop offset="0.794" stop-color="#2672FF"/>
<stop offset="1" stop-color="#0090FF"/>
</linearGradient>
<linearGradient id="paint15_linear_1_4476" x1="269.952" y1="346.999" x2="139.057" y2="416.893" gradientUnits="userSpaceOnUse">
<stop stop-color="#7633FF"/>
<stop offset="0.132" stop-color="#6342FF"/>
<stop offset="0.534" stop-color="#2E6CFF"/>
<stop offset="0.835" stop-color="#0D86FF"/>
<stop offset="1" stop-color="#0090FF"/>
</linearGradient>
<linearGradient id="paint16_linear_1_4476" x1="135.506" y1="389.839" x2="262.091" y2="389.839" gradientUnits="userSpaceOnUse">
<stop stop-color="#3D00BA"/>
<stop offset="0.745" stop-color="#CE00FF"/>
</linearGradient>
<linearGradient id="paint17_linear_1_4476" x1="289.162" y1="163.023" x2="367.476" y2="163.023" gradientUnits="userSpaceOnUse">
<stop stop-color="#7633FF"/>
<stop offset="0.159" stop-color="#7137FF"/>
<stop offset="0.353" stop-color="#6243FF"/>
<stop offset="0.568" stop-color="#4957FF"/>
<stop offset="0.794" stop-color="#2672FF"/>
<stop offset="1" stop-color="#0090FF"/>
</linearGradient>
<linearGradient id="paint18_linear_1_4476" x1="278.013" y1="288.293" x2="317.184" y2="160.856" gradientUnits="userSpaceOnUse">
<stop stop-color="#7633FF"/>
<stop offset="0.111" stop-color="#6640FF"/>
<stop offset="0.524" stop-color="#2F6BFF"/>
<stop offset="0.833" stop-color="#0D86FF"/>
<stop offset="1" stop-color="#0090FF"/>
</linearGradient>
<linearGradient id="paint19_linear_1_4476" x1="289.674" y1="223.421" x2="313.644" y2="223.421" gradientUnits="userSpaceOnUse">
<stop stop-color="#7700BB"/>
<stop offset="1"/>
</linearGradient>
<linearGradient id="paint20_linear_1_4476" x1="285.542" y1="173.177" x2="308.455" y2="173.177" gradientUnits="userSpaceOnUse">
<stop stop-color="#7633FF"/>
<stop offset="0.159" stop-color="#7137FF"/>
<stop offset="0.353" stop-color="#6243FF"/>
<stop offset="0.568" stop-color="#4957FF"/>
<stop offset="0.794" stop-color="#2672FF"/>
<stop offset="1" stop-color="#0090FF"/>
</linearGradient>
<linearGradient id="paint21_linear_1_4476" x1="287.909" y1="246.49" x2="310.469" y2="246.49" gradientUnits="userSpaceOnUse">
<stop stop-color="#7700BB"/>
<stop offset="1"/>
</linearGradient>
<linearGradient id="paint22_linear_1_4476" x1="245.296" y1="353.793" x2="273.371" y2="353.793" gradientUnits="userSpaceOnUse">
<stop stop-color="#270036"/>
<stop offset="0.594" stop-color="#4F008B"/>
<stop offset="1" stop-color="#4C24B1"/>
</linearGradient>
<linearGradient id="paint23_linear_1_4476" x1="300.191" y1="169.861" x2="330.605" y2="169.861" gradientUnits="userSpaceOnUse">
<stop stop-color="#A1BAFF"/>
<stop offset="0.488" stop-color="white"/>
</linearGradient>
<linearGradient id="paint24_linear_1_4476" x1="289.66" y1="223.376" x2="368.623" y2="223.376" gradientUnits="userSpaceOnUse">
<stop stop-color="#7633FF"/>
<stop offset="0.159" stop-color="#7137FF"/>
<stop offset="0.353" stop-color="#6243FF"/>
<stop offset="0.568" stop-color="#4957FF"/>
<stop offset="0.794" stop-color="#2672FF"/>
<stop offset="1" stop-color="#0090FF"/>
</linearGradient>
<linearGradient id="paint25_linear_1_4476" x1="370.251" y1="256.735" x2="400.582" y2="256.735" gradientUnits="userSpaceOnUse">
<stop stop-color="#A1BAFF"/>
<stop offset="0.488" stop-color="white"/>
</linearGradient>
<linearGradient id="paint26_linear_1_4476" x1="367.118" y1="134.498" x2="393.039" y2="134.498" gradientUnits="userSpaceOnUse">
<stop stop-color="#A1BAFF"/>
<stop offset="0.488" stop-color="white"/>
</linearGradient>
<linearGradient id="paint27_linear_1_4476" x1="542.086" y1="69.3723" x2="655.513" y2="69.3723" gradientUnits="userSpaceOnUse">
<stop stop-color="#A1BAFF"/>
<stop offset="0.089" stop-color="#ACC2FF"/>
<stop offset="0.499" stop-color="#D9E3FF"/>
<stop offset="0.816" stop-color="#F5F7FF"/>
<stop offset="1" stop-color="white"/>
</linearGradient>
<linearGradient id="paint28_linear_1_4476" x1="399.668" y1="91.3978" x2="481.175" y2="91.3978" gradientUnits="userSpaceOnUse">
<stop stop-color="#A1BAFF"/>
<stop offset="0.089" stop-color="#ACC2FF"/>
<stop offset="0.499" stop-color="#D9E3FF"/>
<stop offset="0.816" stop-color="#F5F7FF"/>
<stop offset="1" stop-color="white"/>
</linearGradient>
</defs>
</svg>
